<svg id="Capa_1" data-name="Capa 1" xmlns="http://www.w3.org/2000/svg" viewBox="0 0 503.9185 448.3506"><path d="M-578.7821,567.5856a17.54,17.54,0,0,1-4.3955-1.12,6.1873,6.1873,0,0,0-.5436-.418,12.0652,12.0652,0,0,1-6.1211-10.9156c-.0027-1.1674-.055-2.3347-.0845-3.502q.1474-4.3546-.0007-8.7093l.0236-.3673c.1348-4.3728.0923-8.7459.0221-13.119.0785-2.7556.1415-5.5112-.0383-8.2656.1682-4.61.1023-9.2207.0347-13.8314.0261-.7016.0746-1.4033.0749-2.105q.0069-17.6813.0006-35.3627c-.0038-5.2185-.037-10.4371-.0569-15.6556a19.1746,19.1746,0,0,0-.052-3.5855c.157-3.6527.1225-7.3057.0186-10.9588a5.3117,5.3117,0,0,0-.0212-1.7753c.1868-7.17.1111-14.34.038-21.51a24.7268,24.7268,0,0,0,.0192-3.7917q.02-10.28.0367-20.5594c.0011-2.4591-.04-4.9183-.0617-7.3772a56.71,56.71,0,0,0-.036-6.88c.1669-4.0354.13-8.0711.02-12.1069a67.2992,67.2992,0,0,0-.0435-7.4929c.2264-3.2447.1171-6.4917.0629-9.7383.084-2.7384.1479-5.4767-.0385-8.2139.1724-3.48.1156-6.9608.0279-10.4416a72.59,72.59,0,0,0-.0456-7.4611c.0369-.6994.1051-1.3987.1059-2.0981q.0124-10.63.0088-21.2594a13.345,13.345,0,0,1,.1608-2.6241,12.3383,12.3383,0,0,1,12.1712-10.1545c1.8715-.0462,3.7437-.0611,5.6157-.09,2.9434.2293,5.8881.06,8.8325.0283a63.1571,63.1571,0,0,0,6.9944.0151l24.43-.0034a61.1118,61.1118,0,0,0,6.97-.0125,5.6522,5.6522,0,0,0,1.947-.0719,6.3781,6.3781,0,0,0,2.0955.1263q65.2.0082,130.3993.0018c.6434,0,1.2868-.0469,1.93-.0719.4088.0293.8176.084,1.2264.0842q14.09.0072,28.179,0c.4087,0,.8174-.0551,1.2261-.0846,2.7071.1165,5.414.1386,8.1208-.01,2.39.0285,4.7809.0828,7.1714.08,5.3094-.0057,10.6189-.04,15.9283-.0625a4.575,4.575,0,0,0,1.7641.0157l3.6322.0044a7.34,7.34,0,0,0,2.1873-.0223c.6433.0234,1.2866.0666,1.93.067q11.0817.0074,22.1636,0c.7012,0,1.4025-.0484,2.1012-.0745,4.6062.2555,9.2155-.0178,13.8246.0124,3.5585.0233,7.1174-.0063,10.6761-.0124a57.8535,57.8535,0,0,0,6.8362.0107,7.9245,7.9245,0,0,0,2.2918-.0042c2.162.0269,4.324.0784,6.4859.0759,5.9064-.0067,11.8128-.0361,17.7192-.0566.6442.0174,1.2885.0492,1.9327.05,4.692.0045,9.3841-.0275,14.0758.01a12.3176,12.3176,0,0,1,12.5682,12.5962c.0141,4.34-.0055,8.68.0058,13.02.0074,2.8134.0431,5.6268.0661,8.44-.0224.4077-.0643.8154-.0644,1.2231q-.005,20.0879.0007,40.1757c0,.4075.0455.815.07,1.2225a12.5,12.5,0,0,0,.0025,2.8217c-.0253.6408-.0723,1.2815-.0727,1.9224q-.0072,13.1461-.0005,26.2925c.0008,1.2839.04,2.5678.0616,3.8517-.022.4667-.0633.9334-.0634,1.4q-.0048,27.6662,0,55.3321c0,.4673.035.9346.0536,1.402-.0159.5859-.0453,1.1717-.0454,1.7576q-.0039,18.9316.0009,37.8632c.0025,4.0493.039,8.0986.06,12.1479-.0223.7014-.0638,1.4029-.0639,2.1043q-.0059,21.0858-.004,42.1716a35.7617,35.7617,0,0,1-.2991,6.4748c-.1167.268-.25.53-.3475.8048a12.1328,12.1328,0,0,1-8.9745,8.1234,15.5,15.5,0,0,1-3.8527.2382q-157.07.0075-314.14.0036c-.6455,0-1.291-.0148-1.9365-.0226-.1553-3.722-.1443-7.4455-.1021-11.1694.8218-.0044,1.6437-.0129,2.4655-.0129q143.0907-.0009,286.1813-.0009c.88,0,1.7619.018,2.6414-.0139a10.6911,10.6911,0,0,0,9.8943-7.874,14.122,14.122,0,0,0,.35-3.8395q-.0007-117.6425,0-235.285c0-.4109.0027-.8219-.0018-1.2328a10.6534,10.6534,0,0,0-7.5361-10.1512,14.6939,14.6939,0,0,0-4.5149-.5611q-39.8892.0078-79.7785.0037c-.3522,0-.7072.0289-1.0561-.005-.7446-.0721-1.0675.219-1.0623.99.0161,2.3456-.0088,4.6915-.0177,7.0374-.0336.642-.0895,1.2837-.0975,1.926q-.2592,20.6671-.5139,41.3343c-.069,5.1579-.1984,10.3149-.3,15.47a.9738.9738,0,0,0-.9345-.57c.0737-2.81.18-5.62.2158-8.43q.2957-23.2.5548-46.4a16.7725,16.7725,0,0,0-.0285-3.6741,43.4593,43.4593,0,0,0,.094-7.3753c-.1844-.4358-.5765-.3071-.8989-.3075q-8.4657-.01-16.9313,0c-.3254,0-.7131-.116-.9086.3034a36.5334,36.5334,0,0,0-1.2694,5.2981.99.99,0,0,1-1.1333.6274,3.5193,3.5193,0,0,1,.0916-1.1561,24.782,24.782,0,0,0,1.2071-5.068h-2.2139l-196.5437,0c-.587,0-1.1746-.0153-1.761.0044a10.8936,10.8936,0,0,0-10.3457,7.5947,14.1587,14.1587,0,0,0-.5256,4.3459q.0123,81.3648.0087,162.73c0,.6452.0269,1.29.041,1.9343-.1431,1.1487-.6959,2.1976-.7786,3.3715a15.186,15.186,0,0,0,.7947,4.5932l-.0392,13.3517-.0221.05-.3435.2926a1.0032,1.0032,0,0,0-.7474.3058,8.8063,8.8063,0,0,0-2.6823.9885,13.24,13.24,0,0,0-2.9233,1.2011,1.197,1.197,0,0,0-1.036,1.0441,9.8327,9.8327,0,0,0-1.1255,2.7427,116.7992,116.7992,0,0,0-3.4605,16.4478,3.159,3.159,0,0,0,.1047,2.2309,53.1907,53.1907,0,0,0-1.0527,10.1159c.2037,6.4385.6176,12.87.838,19.3083.1164,3.4,1.4833,6.3444,2.9842,9.26a2.5508,2.5508,0,0,0,1.9592,1.6719c.2735-1.0329-.37-1.8223-.7223-2.6344a6.5834,6.5834,0,0,1-.4645-4.0916,11.758,11.758,0,0,0-.073-6.2391,5.1868,5.1868,0,0,1-.0528-2.443c.6217-4.1054,1.3048-8.2018,1.8865-12.3127.4176-2.9511,1.0988-5.8652,1.2587-8.8514.731-.0416,1.2371-.3121,1.3472-1.134a1.9172,1.9172,0,0,1,.3737-1.2648q.038,7.2361.0827,14.4722a3.6043,3.6043,0,0,0,.1922,1.88,2.0585,2.0585,0,0,0-.1208,1.7125c-.0261.6988-.0744,1.3976-.075,2.0964q-.0086,10.2426-.0067,20.4851c-.0018,1.6324-.0446,3.2648-.0686,4.8972ZM-225.197,426.9963q0,12.41-.0019,24.82a7.2415,7.2415,0,0,0,.2967,2.4261c.69,1.9994,1.9266,2.825,4.1662,2.7037,1.7522-.0949,2.8355-1.11,3.3116-3.06a7.9286,7.9286,0,0,0,.2783-1.9032q-.0131-25.1716.002-50.3433a6.3291,6.3291,0,0,0-.5491-2.5536,3.6615,3.6615,0,0,0-3.487-2.2757,3.6817,3.6817,0,0,0-3.4855,2.2818,7.0617,7.0617,0,0,0-.5421,2.9085Q-225.1791,414.4984-225.197,426.9963ZM-575.44,418.5145c-4.4841-.24-8.3919,3.906-8.4627,8.2576a8.4774,8.4774,0,0,0,8.262,8.6492,8.4619,8.4619,0,0,0,8.6859-8.4579C-566.9093,422.7446-570.548,418.32-575.44,418.5145Z" transform="translate(651.3588 -176.916)" fill="#242d30"/><path d="M-535.7835,567.5563c.6455.0078,1.291.0226,1.9365.0226q157.07.0015,314.14-.0036a15.5,15.5,0,0,0,3.8527-.2382,12.1328,12.1328,0,0,0,8.9745-8.1234c.0977-.2747.2308-.5368.3475-.8049,9.84,6.3718,20.4779,8.5471,31.9977,6.0833a18.38,18.38,0,0,1-.9926,4.2621,111.241,111.241,0,0,1-6.1294,16.2737,27.7481,27.7481,0,0,1-11.8278,12.6143,81.1123,81.1123,0,0,1-19.8908,7.885,166.6986,166.6986,0,0,1-25.1959,4.6915q-9.8779,1.1151-19.8062,1.4583c-3.7547.13-7.5074.2576-11.2577.1516-11.6117-.3283-23.1753-1.1566-34.5374-3.7825a64.78,64.78,0,0,1-13.8243-4.5857c-2.2127-1.074-4.3382-2.33-6.4888-3.53a170.5939,170.5939,0,0,0-39.5674-15.8656A232.1181,232.1181,0,0,0-393,578.3846q-8.19-1.0888-16.4215-1.7562c-7.5425-.6206-15.0953-.8951-22.6578-1.12-5.223-.1552-10.4427-.2134-15.6608-.1174-6.9186.1273-13.8369.367-20.75.68-5.5028.2491-11.0115.533-16.4924,1.0623a262.7065,262.7065,0,0,1-32.1652.9323,154.4341,154.4341,0,0,1-16.4674-1.2856c-.6382-.0855-1.2873-.089-1.9315-.13Q-535.6651,572.1034-535.7835,567.5563Z" transform="translate(651.3588 -176.916)" fill="#4bbbbe"/><path d="M-321.0319,286.1333q-1.816-.0023-3.6314-.0045a32.1084,32.1084,0,0,0-.4868-6.6492,160.7465,160.7465,0,0,0-3.4628-16.4836,20.8718,20.8718,0,0,0-3.4287-7.84,7.7714,7.7714,0,0,0-2.1834-2.1234c-.104,1.3-.4411,2.3261.3505,3.2672a18.77,18.77,0,0,1,3.7525,8.0566c1.6477,7.1774,3.2877,14.3649,3.6938,21.7568-5.3094.0226-10.6189.0568-15.9283.0625-2.3905.0026-4.7809-.0517-7.1716-.08.3758-3.5829.675-7.1734,1.2841-10.7305.431-2.5169.7542-5.0523,1.1256-7.5795.5916-2.4446,1.1659-4.8936,1.7782-7.333a113.0266,113.0266,0,0,1,5.6136-16.6458c4.8935-11.5351,12.9426-20.2513,23.4722-26.8658a72.7381,72.7381,0,0,1,25.6416-9.7625c5.2412-.9819,10.55-1.5785,15.75-2.7925a30.2817,30.2817,0,0,0,10.127-4.32,73.7223,73.7223,0,0,1,14.8813-7.91c.8206-.311,1.6672-.5559,2.509-.8069a7.805,7.805,0,0,1,1.03-.1448c-.2008,1.943-.4324,3.7872-.5747,5.6384a47.6381,47.6381,0,0,0,.5434,13.8418,16.2111,16.2111,0,0,0,2.7768,6.2077,41.1855,41.1855,0,0,1,7.4758,19.129,28.7549,28.7549,0,0,1,.1062,6.8447c-1.9514,1.9062-4.2,3.4833-5.8257,5.7582-1.619,2.2655-3.7193,4.1424-5.4668,6.3329-3.4217,4.2894-6.8294,8.5763-9.8834,13.142-3.6517,5.4594-7.219,10.9681-10.4,16.7188a10.7494,10.7494,0,0,1-1.3962-.11,28.2405,28.2405,0,0,0-6.2507-.6561,64.7021,64.7021,0,0,0-8.5709.3453,60.2852,60.2852,0,0,0-8.8657,1.7072c-.7012.0259-1.4025.0738-2.1037.0743q-11.0818.008-22.1636,0c-.6433,0-1.2866-.0436-1.9274-.0673q4.0172-4.7744,8.0271-9.55,3.8277-4.5873,7.6079-9.2141a1.1528,1.1528,0,0,1,1.4727-.5044,4.476,4.476,0,0,0,2.7551-.2519,26.1454,26.1454,0,0,0,5.6178-2.89,23.7312,23.7312,0,0,1,9.4567-3.0847c4.0494-.4776,7.99.6132,11.9934.8008a3.1806,3.1806,0,0,1,.34.09,91.3764,91.3764,0,0,1,13.6932,3.873c.45.1486.9019.5037,1.5036.2685a3.8085,3.8085,0,0,0-2.682-2.1423c-1.4742-.3794-2.9139-.8906-4.3774-1.314-6.7168-1.943-13.4853-3.4736-20.5659-2.7861a26.7817,26.7817,0,0,0-8.9868,2.2224c-1.8558.876-3.7078,1.76-5.5711,2.62-.6108.2819-1.2211.7334-1.9548.3a2.1807,2.1807,0,0,1,.7264-1.399c1.6421-2.0618,3.3328-4.0848,4.9942-6.1313q4.9837-6.1386,9.9469-12.294c.639-.7957,1.2111-1.5609,2.4079-1.4714a2.401,2.401,0,0,0,1.1286-.4453c1.6-.8634,3.1916-1.743,4.7828-2.6228,4.9959-2.7623,10.0728-5.2472,15.8728-5.92a33.396,33.396,0,0,1,10.6647.16c1.69.3466,3.3766.7095,5.2881,1.1121a4.7026,4.7026,0,0,0-2.9383-1.7879,38.91,38.91,0,0,0-12.2035-.8122,41.5724,41.5724,0,0,0-10.2161,2.4138,69.3516,69.3516,0,0,0-8.9687,4.4485c-.535.3038-1.0459.7581-1.7793.5152-.0555-.8.4772-1.21.8677-1.6977,1.6466-2.058,3.2969-4.1132,4.9294-6.1824q4.8438-6.1395,9.67-12.2931c2.4969-3.18,5.0018-6.3548,7.4712-9.5565a5.8736,5.8736,0,0,0,1.3679-4.4485,3.1632,3.1632,0,0,0-.9451,1.8731,3.0574,3.0574,0,0,1-1.2581,2.4062c-2.5434,2.1245-4.4525,4.8244-6.5536,7.3356-3.72,4.4465-7.2733,9.0331-10.9121,13.5484-.3822.4743-.74,1.033-1.3236,1.1967a.8085.8085,0,0,1-.3836-.8551,58.3477,58.3477,0,0,1,.3762-8.9572c.7672-4.6646,2.1918-9.0039,5.7314-12.3764a.3078.3078,0,0,0,.0435-.4538,4.2264,4.2264,0,0,0-2.6282,1.8274,27.1139,27.1139,0,0,0-4.9936,14.0608,75.6373,75.6373,0,0,0-.3126,8.6057,3.4094,3.4094,0,0,1-.8794,2.4151c-.4636.5273-.8743,1.1006-1.317,1.6465q-9.7976,12.08-19.6063,24.15c-.3059.3759-.5483.9467-1.31.7939a21.9262,21.9262,0,0,0-1.9472-7.6,36.7106,36.7106,0,0,1-2.0465-18.6687,38.7847,38.7847,0,0,1,7.168-17.9479,3.5068,3.5068,0,0,0,.8672-1.5708,6.1407,6.1407,0,0,0-2.9712,2.6062c-.6393,1.1194-1.3842,2.1829-1.9647,3.3308a43.5722,43.5722,0,0,0-4.6452,15.3875,45.8749,45.8749,0,0,0,.4,12.2449,57.09,57.09,0,0,0,1.8884,7.1254,21.9734,21.9734,0,0,1,1.0638,6.731,5.2682,5.2682,0,0,1-1.4452,3.63c-1.0117,1.1377-1.9593,2.3323-2.9346,3.5022-2.7761,3.33-5.509,6.6951-8.3406,9.98C-318.8181,283.4237-320.21,284.5477-321.0319,286.1333Z" transform="translate(651.3588 -176.916)" fill="#adcb3e"/><path d="M-522.7052,286.05a5.6507,5.6507,0,0,1-1.9472.0718c.2781-1.49-.5488-2.3944-1.6524-3.1747a13.9005,13.9005,0,0,1-3.3085-3.3056q-.0122-9.0584-.0244-18.1168a24.7928,24.7928,0,0,1,4.3187-4.3219c.6245-.4882.8494-.9106.3366-1.5926-.5949-.7912-1.1456-1.6154-1.7371-2.4091-.4312-.5786-.9247-.6852-1.4414-.0868a1.6616,1.6616,0,0,1-1.41.5676c-.2307-1.3767-.2307-1.3768-1.5692-1.3958-.1173-.0017-.2346,0-.3518,0q-12.9286,0-25.8571.0008c-.41,0-.8206.02-1.2307.0134-.4734-.0073-.5338.3594-.648.6832a1.3948,1.3948,0,0,0-2.1171.7381,7.5562,7.5562,0,0,1-1.2079,1.6991c-.5279.5619-.4559.9626.0521,1.4714,1.1491,1.1509,2.26,2.34,3.387,3.5129l-.0426,20.3356a9.896,9.896,0,0,1-2.4479,2.4746,2.6208,2.6208,0,0,0-1.4424,2.9079c-2.9442.0313-5.8889.2009-8.8323-.0284q.0039-13.3815.0033-26.763c0-.5246-.0675-1.0493-.1035-1.5739.21-1.5156.0442-3.0395.1036-4.558.0266-.6818-.2769-.9568-.9392-.9155-.35.0218-.7026.0019-1.054.0019q-14.4951,0-28.99,0c-.3514,0-.7036.0157-1.0541-.0017-.64-.0317-1.0074.1948-.96.9.0237.35.0006.7025.0006,1.0539q0,14.4953.0046,28.9905c0,.5821.0685,1.1641.1051,1.7462a6.4226,6.4226,0,0,0-.1159.8669q-.0114,17.57-.005,35.1406c.0008,1.3013.0348,1.3256,1.413,1.33,4.51.0132,9.0194.0072,13.5291.0085a72.5924,72.5924,0,0,1,.0456,7.4612h-11.1734l-.1535.3138,11.299,10.1278c.1864,2.7372.1225,5.4755.0385,8.214l-10.1442,9.35.1555.3883h9.9258a67.2992,67.2992,0,0,1,.0435,7.4929.9054.9054,0,0,0-.3095.0678c-2.5213-.0262-5.0437-.1047-7.5634-.0529a1.5315,1.5315,0,0,1-1.7536-1.27,56.286,56.286,0,0,1-2.2606-12.7766c2.4963-2.221,4.9771-4.46,7.4991-6.6511.6781-.5891.5955-.97-.0184-1.5294-2.948-2.6842-5.867-5.4-8.7963-8.1049a3.0925,3.0925,0,0,1-.5017-1.4648c-.3056-1.9623-.5977-3.93-1.0085-5.872-1.1053-5.2231-2.6954-10.2078-7.2188-13.6283.0268-.6439.0767-1.2878.0769-1.9316q.0062-28.97.002-57.9408c0-2.5788.1592-2.22-2.2949-2.2231q-13.2084-.0182-26.4168-.0048c-.3522,0-.7045.0041-1.0566-.0009-1.462-.0208-1.4781-.0217-1.4859-1.4125q-.02-3.522.0008-7.0444c.009-1.36.0281-1.3782,1.3421-1.39,1.937-.017,3.8744.0024,5.8116-.0084.644-.0036,1.2878-.0524,1.9317-.08,3.4784.1773,6.9572.1348,10.4362.0216.4669.0209.9338.06,1.4007.06q23.1695.0048,46.339-.0007c.4661,0,.9321-.0506,1.3982-.0775a15.5968,15.5968,0,0,0,2.4517.1151,1.9159,1.9159,0,0,0,1.6716-.7547c3.6581-3.9568,7.4979-7.744,11.027-11.8214,1.1516-1.1642,2.3781-2.265,3.4309-3.5126a3.5465,3.5465,0,0,1,3.0449-1.281q30.4081.0554,60.8167.0235c.7606,0,1.5212-.0363,2.2818-.0557,3.4488.1191,6.8973.1628,10.3454-.0228.7611.027,1.5223.0775,2.2835.0776q53.09.0059,106.18-.0254a4.5945,4.5945,0,0,1,3.4176,1.3347q8.14,7.5353,16.4157,14.9229a3.0376,3.0376,0,0,1,1.1654,2.5669c-.0737,2.7567-.0276,5.5166-.0294,8.2754-.703.0178-1.4061.0506-2.1092.0508q-14.0755.0053-28.1512.0041c-4.8675.0031-9.735.0244-14.6026.0373l-124.7236-.0018c-3.4453,0-3.4453,0-3.1193,3.5565a7.4318,7.4318,0,0,0-.1158,2.0965Q-522.6944,271.9947-522.7052,286.05Zm128.7268-50.3281c.0261-.2192-.0041-.3542-.25-.1673l.2828.1367c1.8882,2.4,4.3087,4.2676,6.4347,6.43a1.0715,1.0715,0,0,0,.798.3039c1.6711,0,3.3422,0,4.99,0,.0429-.3945-.1674-.4245-.3017-.4974q-5.483-2.9778-10.9708-5.9469A1.2393,1.2393,0,0,0-393.9784,235.7222Zm-63.7448,3.7875c3.1326-2.997,6.0526-6.1977,8.9878-9.3838.0947-.1027.1045-.2025-.0343-.3721a3.3493,3.3493,0,0,0-1.4672-.1033q-10.0292-.0129-20.0583-.0016c-.5838.0006-1.1677.0608-1.7515.0933-.2759-.0237-.5688-.1669-.8308.1425a2.7232,2.7232,0,0,0,.2633.3916q5.4216,5.7252,10.85,11.444c.12.127.2435.2514.366.3764a.84.84,0,0,0,1.3651.0173A15.0752,15.0752,0,0,0-457.7232,239.51Zm-22.2851-7.8352c-.3557.3007-.7321.58-1.0638.9056q-4.3895,4.3029-8.7617,8.6234a2.9,2.9,0,0,0-.9037,1.1287h23.3014c-1.5822-1.5613-2.9261-2.9142-4.3-4.2354a22.1756,22.1756,0,0,0-3.65-3.2716c-.8-1.37-2.154-2.2255-3.1611-3.4015C-479.2065,230.6546-479.6092,231.0842-480.0083,231.6745Zm-66.684-1.9439c.3434.4585.4632.6565.6188.82q5.2615,5.5467,10.5343,11.0826c1.0917,1.1421,1.6869,1.1478,2.7661.0193q5.3451-5.5887,10.6568-11.209c.1833-.1932.4767-.37.2691-.7134Zm37.0906,0a4.988,4.988,0,0,0,.4011.6611q5.3886,5.6893,10.7911,11.3656c.8234.862.877.856,1.7889-.1007q5.1638-5.4171,10.2946-10.8656c.26-.2756.6575-.4935.6215-1.06Zm97.5737.04h-23.8774c.2544.3445.3683.5375.5185.6963q5.2577,5.5622,10.526,11.1142c.8659.91.8985.9031,1.75.0257q5.2074-5.3667,10.3963-10.7517C-412.4455,230.576-412.0712,230.3476-412.028,229.771ZM-453.5562,242.34c4.0371.3164,21.5412.1744,22.4163-.07-3.3-3.4578-6.7277-7.0666-10.18-10.6518-.8426-.8752-.8938-.8538-1.7694.0043q-4.965,4.866-9.9089,9.7535C-453.2313,241.606-453.5919,241.7748-453.5562,242.34Zm-50.5671-.0008L-515.63,231.0475l-11.53,11.2913Zm131.3962-1.5585a1.59,1.59,0,0,0,.31-1.2074c.0072-2.8139.0124-5.628.0012-8.4419-.0059-1.468-.0214-1.4821-1.5926-1.4837q-8.7058-.0095-17.4115.0047c-.3136.0005-.6861-.1375-1.0358.3552C-385.8483,233.613-379.2988,237.2558-372.7271,240.78Zm-189.457,1.56h20.7131c-.048-.1961-.0391-.333-.1031-.3961-3.17-3.1259-6.357-6.2345-9.5121-9.3754-.5913-.5887-.9605-.3826-1.44.1048-1.6843,1.7123-3.3947,3.3989-5.0935,5.0969C-559.0588,239.21-560.4956,240.65-562.1841,242.3408Zm146.3051-.0221h18.7109l-9.2427-10.3157Zm58.5661.1129.1041-.3392c-1.1059-.9351-2.1915-1.8957-3.3238-2.7978a15.664,15.664,0,0,0-3.4549-2.6356c0,1.6824.0194,3.1956-.0087,4.7079-.0129.6933.1448,1.0916.9557,1.0763C-361.1319,242.4071-359.2222,242.4316-357.3129,242.4316Z" transform="translate(651.3588 -176.916)" fill="#eaa523"/><path d="M-206.1675,320.2457c-.023-2.8134-.0587-5.6268-.0661-8.44-.0113-4.34.0083-8.68-.0058-13.02a12.3176,12.3176,0,0,0-12.5682-12.5962c-4.6917-.0374-9.3838-.0054-14.0758-.01-.6442-.0006-1.2885-.0324-1.9321-.05a2.0676,2.0676,0,0,1,.79-.9227c3.3928-2.2825,6.7254-4.6538,10.2344-6.7633,4.9561-2.9795,9.9849-5.83,14.6943-9.2221,5.0726-3.6541,9.9617-7.5332,14.7759-11.5065,3.3746-2.7851,6.5845-5.77,9.8679-8.6654.3094.8074,1.1331.7728,1.7532,1.0069a53.0127,53.0127,0,0,1,18.962,11.8386,51.9242,51.9242,0,0,1,13.19,22.7294,81.4489,81.4489,0,0,1,2.9139,17.6414,113.4284,113.4284,0,0,1-1.7763,26.766A173.4122,173.4122,0,0,1-166.01,378.5126a107.3427,107.3427,0,0,1-10.4952,16.8533,30.2412,30.2412,0,0,0-5.3545,12.8807c-1.417,7.19-1.3329,14.4467-.8469,21.7221.1992,2.9833.45,5.9583.7949,8.9266.1215,1.0468.274,2.09.4127,3.1352-1.0266.4223-2.0715.8058-3.0777,1.2727a134.3881,134.3881,0,0,0-18.3046,10.3358,16.5821,16.5821,0,0,1-3.2989,2.25c-.0186-.4674-.0535-.9347-.0536-1.402q-.0042-27.666,0-55.3321c0-.4667.0414-.9334.0635-1.4,1.0183-.0845,1.62-.8843,2.3894-1.3948a97.3055,97.3055,0,0,0,13.5744-11.3275c2.1391-2.0637,4.0421-4.3769,6.0208-6.607a113.6408,113.6408,0,0,0,7.4013-9.5493,111.7272,111.7272,0,0,0,10.0432-17.29,86.4511,86.4511,0,0,0,5.2709-14.4832,97.9639,97.9639,0,0,0,2.5472-12.85,83.7025,83.7025,0,0,0,.9485-10.7886c-.002-3.74.0988-7.4762-.2312-11.23-.2552-2.9031-.5159-5.8172-.9061-8.6943a86.1261,86.1261,0,0,0-2.3407-11.2908,5.5943,5.5943,0,0,0-.7111-1.817c-1.0774.8936-2.1188,1.6453-3.0282,2.5324-2.9331,2.8613-6.1694,5.3736-9.2428,8.072-3.77,3.31-7.7454,6.385-11.6032,9.5963-3.1864,2.6523-6.2674,5.4349-9.5131,8.011a53.9877,53.9877,0,0,0-7.25,7.5918C-203.934,317.5629-205.0459,318.9084-206.1675,320.2457Z" transform="translate(651.3588 -176.916)" fill="#4bbbbe"/><path d="M-611.8365,314.3864c4.5234,3.4205,6.1135,8.4052,7.2188,13.6283.4108,1.9418.7029,3.91,1.0085,5.872a3.0937,3.0937,0,0,0,.5015,1.4647c-.1924.1375-.3582.2768-.3225.56.42,3.336.615,6.6972,1,10.0312.2189,1.8945-.0005,3.849.6381,5.6945a56.286,56.286,0,0,0,2.2606,12.7766,1.5315,1.5315,0,0,0,1.7536,1.27c2.52-.0518,5.0421.0267,7.5637.0529-.3665.4165-.8618.29-1.3157.2932-1.756.011-3.5122,0-5.2683.0057-1.9977.0069-2.1621.2176-1.421,2.1165.53,1.3582,1.167,2.6748,1.7561,4.01a104.1558,104.1558,0,0,0,6.5737,12.4937c.0218,2.4591.0628,4.9183.0617,7.3774q-.0044,10.28-.0367,20.5586c-.838-.1284-1.0453-.8966-1.3969-1.4626-2.47-3.9767-4.8239-8.0222-7.1635-12.0777-3.0432-5.2753-6.0109-10.5918-8.8148-15.9951a240.4922,240.4922,0,0,1-12.6776-27.8c-1.5317-4.1744-3.0255-8.3617-4.1542-12.6694a113.2132,113.2132,0,0,1-3.2493-15.5087c-.8646.7994-1.7132,1.2732-1.4571,2.5479.8166,4.0645,1.5779,8.1348,2.6239,12.1548a169.4848,169.4848,0,0,0,11.1345,29.724c4.5854,9.6975,9.6468,19.1513,15.0409,28.4273,3.236,5.5649,6.4133,11.1624,10.0949,16.4525.0731,7.17.1488,14.34-.0379,21.51-2.4776-1.1745-4.9769-2.3055-7.4266-3.5355-2.3982-1.2041-4.7472-2.5064-7.1152-3.7706-2.3822-1.2719-4.6294-2.7967-7.3577-4.2078v6.3275a.1949.1949,0,0,1-.2265-.07c.0122-1.6829-.041-3.37.06-5.0472a2.1223,2.1223,0,0,0-1.2269-2.2439,33.2284,33.2284,0,0,1-4.3387-2.8692c-.5387-.3975-1.0762-.9286-1.8666-.7812-.1576-.9472-1.0331-1.2272-1.6592-1.6915a78.972,78.972,0,0,1-10.6733-9.4111,25.7666,25.7666,0,0,1-6.7429-13.2818,12.4092,12.4092,0,0,1,3.361-11.1456c1.2636-1.3873,2.5239-2.774,3.661-4.27A11.1332,11.1332,0,0,0-629.4,371.7951a47.1468,47.1468,0,0,0-2.72-7.2288c-2.0988-4.6467-4.4149-9.1931-6.2989-13.94a58.3484,58.3484,0,0,1-4.1427-16.642,33.4415,33.4415,0,0,1,1.0438-12.7217c1.8449-6.0039,5.4437-8.9774,12.0792-9.45,4.9553-.353,9.8056.5586,14.6363,1.496A19.4916,19.4916,0,0,1-611.8365,314.3864Z" transform="translate(651.3588 -176.916)" fill="#8bccc4"/><path d="M-612.0473,432.6379a.1934.1934,0,0,0,.2264.0693,4.6242,4.6242,0,0,0,.6175.6057,83.716,83.716,0,0,1,16.9412,15.6779c1.4738,1.7337,2.9308,3.4817,4.3954,5.2232.02,5.2185.0531,10.4371.0569,15.6556q.0129,17.6814-.0006,35.3627c0,.7017-.0488,1.4034-.0749,2.1048a104.0608,104.0608,0,0,1-9.3288-4.8961,54.4814,54.4814,0,0,1-5.3488-2.948c-2.3582-1.5126-4.7339-3.0062-7.0993-4.5122a1.2485,1.2485,0,0,0-.2265-.2618,180.393,180.393,0,0,1-27.7984-21.6141,44.9281,44.9281,0,0,1-8.3993-12.6761,36.1877,36.1877,0,0,1-3.27-14.8035,19.9408,19.9408,0,0,1,2.0064-8.8272c2.4455-4.88,6.5813-7.5084,11.7212-8.6876a33.392,33.392,0,0,1,14.2878-.117,5.634,5.634,0,0,0,.87.0442A44.4327,44.4327,0,0,1-612.0473,432.6379Z" transform="translate(651.3588 -176.916)" fill="#147fc2"/><path d="M-184.4526,249.0494c-3.2834,2.8956-6.4933,5.88-9.8679,8.6654-4.8142,3.9733-9.7033,7.8524-14.7759,11.5065-4.7094,3.3924-9.7382,6.2426-14.6943,9.2221-3.509,2.11-6.8416,4.4808-10.2344,6.7633a2.0676,2.0676,0,0,0-.79.9227c-5.907.0205-11.8134.05-17.72.0566-2.1619.0025-4.3239-.049-6.486-.0759a70.42,70.42,0,0,1,5.1788-6.4045,90.3286,90.3286,0,0,1,12.8714-11.405c6.9935-5.2993,13.987-10.6,21.065-15.7856,6.9974-5.1261,14.1744-9.9925,22.1873-13.4486a47.976,47.976,0,0,1,14.6453-4.0824c1.1856-.1082,2.3606-.3317,3.7752-.536-.7578-.826-.8181-2.0189-2.097-1.8728-1.9716.2253-3.9662.3608-5.9019.7681a60.626,60.626,0,0,0-15.9176,5.9,140.4477,140.4477,0,0,0-18.6321,12.2264c-6.4962,4.89-13.0091,9.7587-19.49,14.6685-3.03,2.2957-6.1257,4.5249-8.915,7.1114a70.6327,70.6327,0,0,0-7.899,8.256c-1.141,1.4663-2.533,2.7832-3.1616,4.6091a57.86,57.86,0,0,1-6.8366-.0107q.2925-.643.5857-1.286c3.181-5.7508,6.7483-11.26,10.4-16.7189,3.054-4.5657,6.4617-8.8526,9.8834-13.142,1.7475-2.1905,3.8478-4.0674,5.4668-6.3329,1.6258-2.2749,3.8743-3.852,5.8257-5.7582,1.4059-1.1489,2.8216-2.2871,4.217-3.45,6.5533-5.4595,14.13-8.6361,22.4292-10.3907a94.4267,94.4267,0,0,1,25.52-2.0743,56.77,56.77,0,0,1,16.3179,3.2932,3.4991,3.4991,0,0,1,1.6539.87C-171.8868,237.269-178.0474,243.2844-184.4526,249.0494Z" transform="translate(651.3588 -176.916)" fill="#0fa182"/><path d="M-206.1806,455.89a16.5821,16.5821,0,0,0,3.2989-2.25,134.3881,134.3881,0,0,1,18.3046-10.3358c1.0062-.4669,2.0511-.85,3.0777-1.2727a42.6711,42.6711,0,0,1,8.4815-2.2078,12.2306,12.2306,0,0,1,4.71.2739,2.4364,2.4364,0,0,1,1.9423,1.9917,102.4852,102.4852,0,0,1,2.042,11.5962,83.5347,83.5347,0,0,1,.358,15.2919c-.57,8.4113-2.5318,16.4448-6.9535,23.7385-.819,1.3511-1.7111,2.6579-2.57,3.9853-1.9609,1.8244-3.5994,3.9472-5.6842,5.6794-4.2563,3.5365-8.7253,6.648-13.985,8.5053-.5374.19-1.1414.3337-1.4231.9368-.5955-.2224-1.1962-.4319-1.7857-.6692a98.32,98.32,0,0,0-9.7989-3.4943c-.0209-4.0493-.0574-8.0986-.06-12.1479q-.0119-18.9316-.0009-37.8632C-206.2259,457.0612-206.1965,456.4754-206.1806,455.89Z" transform="translate(651.3588 -176.916)" fill="#0fa182"/><path d="M-623.4894,242.3714c-3.479.1132-6.9578.1557-10.4362-.0216q7.6065-6.2677,15.2151-12.5329,22.5411-18.4643,45.0958-36.9116a9.9738,9.9738,0,0,1,.9522-.7805c.6595-.4142.7438-.85.43-1.5984a9.5674,9.5674,0,0,1,7.754-13.34,30.4973,30.4973,0,0,1,3.3177-.2271c9.3907-.0175,18.7815-.0566,28.1722-.0381a9.1755,9.1755,0,0,1,8.5917,5.1516,9.1939,9.1939,0,0,1-.7082,9.9852c-.287.4273-.6248.8207-.936,1.2258a4.6585,4.6585,0,0,0,1.5461,1.2271q21.8881,14.7631,43.7835,29.5157c.4849.3269.9538.6777,1.43,1.0173-3.4481.1856-6.8966.1419-10.3457.0229-.4592-.36-.9029-.741-1.3794-1.0757q-6.62-4.6512-13.25-9.2886-12.8217-8.98-25.6452-17.9573a3.2975,3.2975,0,0,0-2.05-.8305c-3.2238.0607-6.4517.0783-9.6738-.022a2.291,2.291,0,0,0-2.5187,1.5444c-4.8219,10.2939-9.724,20.55-14.5857,30.8256-.2391.5053-.6864.9809-.4719,1.63-3.5291,4.0774-7.3689,7.8646-11.027,11.8214a1.9159,1.9159,0,0,1-1.6716.7547,15.5968,15.5968,0,0,1-2.4517-.1151c.1384-.3232.2689-.65.4163-.969q9.9973-21.6414,19.9834-43.288c.3-.6522.8762-1.26.6492-2.1789-3.0073.1421-5.9928-.2473-8.9731.2754a5.992,5.992,0,0,1-3.4764-.2342c-1.1852-.5275-1.94-.0312-2.8038.6868q-23.5631,19.5823-47.1512,39.1345C-618.3214,237.9521-621.0292,240.0164-623.4894,242.3714Z" transform="translate(651.3588 -176.916)" fill="#3e5ba7"/><path d="M-206.1652,507.6582a98.32,98.32,0,0,1,9.7989,3.4943c.5895.2373,1.19.4468,1.786.67a108.2182,108.2182,0,0,1,13.976,7.0049,72.1384,72.1384,0,0,1,9.5928,7.0885c1.231,1.4885,2.6462,2.8107,3.82,4.355a27.207,27.207,0,0,1,5.2505,20.4095c-.7146,5.9806-4.1141,10.214-9.6593,12.6519-.963.4233-1.9568.7768-2.9355,1.1614-11.5189,2.4627-22.1568.2874-31.9968-6.0844a35.76,35.76,0,0,0,.2991-6.4747q.0033-21.0858.004-42.1716C-206.229,509.0611-206.1875,508.36-206.1652,507.6582Z" transform="translate(651.3588 -176.916)" fill="#adcb3e"/><path d="M-535.7835,567.5563q.1187,4.5469.2374,9.0936c.0259,5.1634-.05,10.33.1023,15.49.2,6.8072.1636,13.6152.2768,20.4222.0136.8213.0488,1.6421.0736,2.4632q-.0026,1.1323-.0041,2.2649c0,.4058.0808.87-.2365,1.1628a8.6637,8.6637,0,0,1-3.5531,2.1212c-1.14.3157-1.8382-.4819-2.6668-.9674q-1.601-11.4717-3.2013-22.9434-1.44-10.3429-2.8763-20.6863c-.0647-.4623-.2034-.9141-.3076-1.3707a57.023,57.023,0,0,0-.8842-7.0957c-.2629-2.3908-.851-4.7113-1.3364-7.0541l-.3516.0159q-.4206,3.5435-.8411,7.0868a40.7736,40.7736,0,0,0-.756,6.298,68.6832,68.6832,0,0,0-1.0158,6.9361c-.9789,7.0054-1.8749,14.0225-2.8086,21.0343q-1.1688,8.7772-2.3494,17.5531c-.66.2149-1.31.4728-1.9834.6316-.6168.1455-1.3892.3649-1.852-.0889-1.4193-1.3914-3.1458-2.6333-3.1312-4.9469q.2347-10.7139.4718-21.4278c.1619-6.9668.4261-13.9318.3425-20.9025-.0078-.6431-.0463-1.2857-.07-1.9284q.0093-1.57.0183-3.1409c.024-1.6324.0668-3.2648.0686-4.8972q.0117-10.2426.0067-20.4851c.0006-.6988.0489-1.3976.0748-2.0961a6.2646,6.2646,0,0,0,1.7242.3,67.4871,67.4871,0,0,0,7.7222.3493c6.2068-.0188,12.422.31,18.6149-.388.0855,1.8558.2093,3.711.2482,5.5678.073,3.4859.0969,6.9727.1413,10.4591C-535.9278,560.1108-535.9388,563.8343-535.7835,567.5563Z" transform="translate(651.3588 -176.916)" fill="#147fc2"/><path d="M-639.6872,473.1049a180.393,180.393,0,0,0,27.7984,21.6141,1.25,1.25,0,0,1,.2265.2617c-.0258.76-.0739,1.5206-.0741,2.2809q-.0068,21.4432-.0034,42.8866c0,.4687-.0291.9394.0045,1.4056.0562.7812-.3228,1.0116-1.049.9971-2.283-.0458-4.5669-.0539-6.85-.0766-.9266-.8932-1.8323-1.8095-2.7834-2.6759a75.0648,75.0648,0,0,1-14.307-17.258,39.1978,39.1978,0,0,1-5.0382-12.4872,57.6651,57.6651,0,0,1-.8381-9.4348A106.8385,106.8385,0,0,1-639.6872,473.1049Z" transform="translate(651.3588 -176.916)" fill="#4bbbbe"/><path d="M-619.6347,542.4743c2.2835.0227,4.5674.0308,6.85.0766.7262.0145,1.1052-.2159,1.049-.9971-.0336-.4662-.0045-.9369-.0045-1.4056q0-21.4432.0034-42.8866c0-.76.0483-1.5206.0741-2.2809,2.3654,1.5061,4.7411,3,7.0993,4.5123a54.3958,54.3958,0,0,0,5.3477,2.9471c-.1565.6883-.7476,1.0273-1.2038,1.4651-1.377,1.3215-2.7731,2.6232-4.2506,4.0165,1.86,1.6879,3.5814,3.2664,5.32,4.8255q4.7064,4.22,9.4293,8.4215c.18,2.7544.1168,5.51.0383,8.2657-3.1911,2.6638-6.0841,5.65-9.15,8.4506-1.6357,1.4941-3.1928,3.0741-4.7853,4.6154.3921.6812,1.05.3757,1.5862.38,4.1008.0342,8.2019.0314,12.303.04q.15,4.3545.0007,8.7094c-6.2973.22-12.5994-.2027-18.9014.3115-3.3095.27-6.6592.0565-9.9906.0391-.5594-.003-1.184.2008-1.6476-.3293-.008-2.6707-.0092-5.3415-.0291-8.0121C-620.5,543.0127-620.472,542.4571-619.6347,542.4743Zm14.8057-27.5809c-.2947,6.7284-.1646,18.8888.2365,20.3426,3.4657-3.1243,6.88-6.23,10.3326-9.292.7128-.632.483-.993-.0849-1.5192-3.3055-3.0627-6.5861-6.1522-9.8808-9.2267A3.1046,3.1046,0,0,0-604.829,514.8934Z" transform="translate(651.3588 -176.916)" fill="#eaa523"/><path d="M-394.7117,252.288c4.8675-.013,9.735-.0343,14.6025-.0374q14.0755-.009,28.1512-.0041c.7031,0,1.4062-.033,2.1092-.0508.3823.21.3362.5833.3375.9263.0065,1.7594-.0317,3.52.019,5.2779.0259.9-.2574,1.2321-1.198,1.2168-3.1076-.05-6.2165-.0186-9.3249-.0182-.4106,0-.8234.0288-1.2312-.0045-.7707-.0632-1.0158.2819-1.0011,1.0289.0367,1.8761.0115,3.7533.0114,5.63,0,.7038.0463,1.4114-.0112,2.11-.073.8864.2109,1.2593,1.1623,1.2313,1.9923-.0586,3.9877-.03,5.9816-.0086.5634.0062,1.1874-.1932,1.6586.3244-.0212,1.572-.0179,3.1449-.07,4.7159a22.3034,22.3034,0,0,1-.1632,4.5151c-.5247-.0143-1.05-.0383-1.5758-.0386q-17.1921-.0075-34.384-.0077c-.76,0-1.519.037-2.2784.0568a50.5411,50.5411,0,0,1-.0251-9.2826c.0037-.0467.0708-.0883.1082-.1323a47.6513,47.6513,0,0,0,7.9712-.1083c.639-.1966.4679-.7386.47-1.1747q.0207-3.7848.0023-7.57c-.0073-1.247-.0281-1.2688-1.2446-1.28-1.9951-.0185-3.991.0254-5.9854-.0166-1.2771-.0269-2.8893.54-3.7422-.2493-.8726-.8072-.2306-2.4392-.3021-3.7071C-394.7267,254.5194-394.6993,253.4026-394.7117,252.288Zm23.2585,12.2958c0,1.3463.0181,2.693-.0079,4.0388-.0122.63.14.9789.8675.9621,1.5211-.0353,3.0438-.0267,4.5653-.0017.69.0113.9063-.2922.901-.9505-.0216-2.6924-.0309-5.3854.0043-8.0775.0107-.8167-.3759-.977-1.0712-.9635-1.4044.0273-2.8117.0554-4.2136-.0086-.894-.0407-1.09.3417-1.0594,1.1381C-371.4178,262.0069-371.4539,263.2961-371.4532,264.5838Zm-2.955-.0307c0-1.3435-.0053-2.6869.0027-4.03.0031-.5208-.0883-.9253-.7431-.921-1.5185.01-3.0371.005-4.5557.0028-.4906-.0007-.76.2042-.7593.7272.0043,2.8036.0076,5.6073-.0047,8.4109-.0026.5921.2537.84.8356.835,1.4018-.0109,2.8046-.0323,4.2051.0109.7535.0233,1.0511-.2455,1.0308-1.0055C-374.4328,267.2406-374.4069,265.8965-374.4082,264.5531Z" transform="translate(651.3588 -176.916)" fill="#c16920"/><path d="M-620.4664,551.6514c.4636.53,1.0882.3263,1.6476.3293,3.3314.0174,6.6811.2309,9.9906-.0391,6.302-.5142,12.6041-.092,18.9014-.3115.0295,1.1671.0818,2.3344.0845,3.5018a12.0652,12.0652,0,0,0,6.1211,10.9156,6.1873,6.1873,0,0,1,.5436.418c-.5837.0266-1.1669.0766-1.75.0768q-25.1374.0062-50.2751.0033h-.1758c-2.0931-.0017-1.9.1313-1.9028-1.8814q-.0064-5.45.0048-10.8988a3.7208,3.7208,0,0,1,.1528-1.73.3876.3876,0,0,0,.4041-.2169q7.0825-.0286,14.1652-.0618C-621.8583,551.753-621.1624,551.6881-620.4664,551.6514Z" transform="translate(651.3588 -176.916)" fill="#c16920"/><path d="M-171.0115,525.9154a72.1384,72.1384,0,0,0-9.5928-7.0885,108.2182,108.2182,0,0,0-13.976-7.0049c.2814-.6034.8854-.7474,1.4228-.9371,5.26-1.8573,9.7287-4.9688,13.985-8.5053,2.0848-1.7322,3.7233-3.855,5.6842-5.6794a73.98,73.98,0,0,1,1.0508,8.0047c.6485,5.5278.9792,11.0854,1.3523,16.6373C-170.9831,522.8615-171.0319,524.3908-171.0115,525.9154Z" transform="translate(651.3588 -176.916)" fill="#4bbbbe"/><path d="M-353.6793,279.1428a22.2548,22.2548,0,0,0,.1641-4.5164c.0525-1.571.0492-3.1439.07-4.7159l6.3265-2.1251c-.3715,2.5273-.6947,5.0627-1.1257,7.58-.6091,3.5571-.9083,7.1476-1.2841,10.7305-2.7066.1491-5.4135.127-8.1206.01.2841-.507.5719-1.0119.8518-1.5212C-355.79,282.7525-354.5173,281.0721-353.6793,279.1428Z" transform="translate(651.3588 -176.916)" fill="#4bbbbe"/><path d="M-612.0473,432.6379a44.4327,44.4327,0,0,0-10.424-4.6c.8992-2.1709,1.9719-4.2579,3.0521-6.3413.79-.1474,1.3278.3837,1.8665.7812a33.2284,33.2284,0,0,0,4.3387,2.8692,2.1223,2.1223,0,0,1,1.2269,2.2439C-612.0883,429.2682-612.0351,430.955-612.0473,432.6379Z" transform="translate(651.3588 -176.916)" fill="#4bbbbe"/><path d="M-565.2488,614.9769c-.0146,2.3136,1.7119,3.5555,3.1312,4.9469.4628.4538,1.2352.2344,1.852.0889.6734-.1588,1.3233-.4167,1.9834-.6316.2257,1.42-.3108,2.7864-.29,4.2.0111.7685-.5489,1.2031-1.32,1.4327a4.4869,4.4869,0,0,1-5.5223-2.078,5.8976,5.8976,0,0,0-1.3933-1.56,2.8753,2.8753,0,0,1-1.0271-2.99c.14-.6871.3009-1.3723.4973-2.0453A1.6391,1.6391,0,0,1-565.2488,614.9769Z" transform="translate(651.3588 -176.916)" fill="#242d30"/><path d="M-541.5539,619.6071c.8286.4855,1.5265,1.2831,2.6668.9674a8.6637,8.6637,0,0,0,3.5531-2.1212c.3173-.2924.2362-.757.2365-1.1628q.0008-1.1325.0041-2.2649c1.6922-.4283,2.2547-.1146,2.7111,1.4227a12.8,12.8,0,0,1,.1015,3.6391c.0061.6049-.4969.8851-.9782,1.117a5.7147,5.7147,0,0,0-2.31,2.0186,4.36,4.36,0,0,1-5.3518,1.2467c-.1962-.1011-.4972-.2992-.4924-.4437C-541.3632,622.5487-542.2577,621.1-541.5539,619.6071Z" transform="translate(651.3588 -176.916)" fill="#242d30"/><path d="M-548.8233,567.511a57.023,57.023,0,0,1,.8842,7.0957q-2.085-.3746-4.1695-.749a40.855,40.855,0,0,1,.7558-6.2984Q-550.0884,567.5349-548.8233,567.511Z" transform="translate(651.3588 -176.916)" fill="#4bbbbe"/><path d="M-564.4865,567.5773q-.0092,1.57-.0183,3.1409c-2.1319-.631-4.2969-1.1692-6.3855-1.92a14.8045,14.8045,0,0,0-6.0132-.9822,2.8435,2.8435,0,0,1-1.88-.2308Z" transform="translate(651.3588 -176.916)" fill="#4bbbbe"/><path d="M-636.72,551.8189a.3876.3876,0,0,1-.4041.2169C-637.1407,551.68-636.928,551.7536-636.72,551.8189Z" transform="translate(651.3588 -176.916)" fill="#eaa523"/><path d="M-328.3206,305.4416a38.4174,38.4174,0,0,1,11.81,2.2205,39.7916,39.7916,0,0,0,8.3627,1.7435c2.3848.3558,4.7719.1493,7.1554.5357,2.1746.3526,4.4607-.0537,6.6779.1222,4.1185.3269,8.2771.3111,12.3253,1.3536a12.9221,12.9221,0,0,1,4.735,2.2233,6.7446,6.7446,0,0,1,2.32,4.5878,7.5644,7.5644,0,0,1-.8762,4.9307,28.1821,28.1821,0,0,0-1.4964,2.99c-1.011,2.4109-.3224,3.6488,1.4974,4.7369a30.5716,30.5716,0,0,0,7.3974,2.71,77.7264,77.7264,0,0,1,11.1552,3.63,9.6407,9.6407,0,0,1,4.0862,2.9461c1.4813,2.1117,1.0688,5.0779-.8543,7.2872-1.6065,1.8455-3.7966,2.6952-6.0191,3.456-2.1019.7194-4.2334,1.352-6.3474,2.0362a6.4292,6.4292,0,0,0-4.732,5.2975,69.2709,69.2709,0,0,1-2.3732,10.2159,14.5014,14.5014,0,0,1-10.74,9.8767,21.5041,21.5041,0,0,1-6.0658.7457c-1.289-.0575-2.5828-.0247-3.8741-.008-3.57.0463-7.108-.3539-10.6593-.6291-1.9158-.1484-3.8511-.3042-5.7539-.5066-1.8484-.1967-3.7172-.179-5.5664-.5235-1.5322-.2855-3.1318-.2885-4.7009-.4237-6.1364-.5287-12.2932-.4094-18.4453-.3749a11.2252,11.2252,0,0,1-.3022-5.0021c.1489-1.2655.408-2.5181.6181-3.7764.2873-.0376.5738-.0849.8622-.1112,2.7154-.2483,5.432-.483,8.1462-.7436,1.1148-.1071,1.1044-.13.9264-1.2644-.0805-.5132-.1217-1.0326-.1807-1.5492.1018-5.1575.2312-10.3145.3-15.4724q.2762-20.6669.5139-41.3343C-328.41,306.7253-328.3542,306.0836-328.3206,305.4416Z" transform="translate(651.3588 -176.916)" fill="#cce9f5"/><path d="M-206.1675,320.2457c1.1216-1.3373,2.2335-2.6828,3.3667-4.01a53.9877,53.9877,0,0,1,7.25-7.5918c3.2457-2.5761,6.3267-5.3587,9.5131-8.011,3.8578-3.2113,7.8332-6.2863,11.6032-9.5963,3.0734-2.6984,6.31-5.2107,9.2428-8.072.9094-.8871,1.9508-1.6388,3.0282-2.5324a5.5943,5.5943,0,0,1,.7111,1.817A86.1261,86.1261,0,0,1-159.112,293.54c.39,2.8771.6509,5.7912.9061,8.6943.33,3.754.2292,7.49.2312,11.23a83.7025,83.7025,0,0,1-.9485,10.7886,97.9639,97.9639,0,0,1-2.5472,12.85,86.4511,86.4511,0,0,1-5.2709,14.4832,111.7272,111.7272,0,0,1-10.0432,17.29,113.6408,113.6408,0,0,1-7.4013,9.5493c-1.9787,2.23-3.8817,4.5433-6.0208,6.607A97.3055,97.3055,0,0,1-203.781,396.36c-.7692.51-1.3711,1.31-2.3895,1.3948-.0215-1.2838-.0608-2.5677-.0616-3.8516q-.0081-13.1463.0005-26.2925c0-.6409.0474-1.2816.0727-1.9225a4.2616,4.2616,0,0,0,1.254-1.2138c4.2132-5.6778,8.357-11.4009,12.1779-17.3579,3.097-4.8283,6.0611-9.7342,8.7933-14.7709,2.5963-4.7863,5.1028-9.62,7.37-14.5834a204.5385,204.5385,0,0,0,9.04-23.2054c.1265-.3991.4956-.83.1276-1.3433a1.8593,1.8593,0,0,0-2.1176,1.59c-.2564,1.079-.5741,2.1463-.92,3.2008a193.8048,193.8048,0,0,1-7.3173,18.231,201.8782,201.8782,0,0,1-9.5495,18.5938,247.6917,247.6917,0,0,1-13.97,21.6652,68.9866,68.9866,0,0,1-4.8921,6.3727c-.0243-.4075-.07-.815-.07-1.2225q-.0058-20.0879-.0007-40.1757C-206.2318,321.0611-206.19,320.6534-206.1675,320.2457Z" transform="translate(651.3588 -176.916)" fill="#8bccc4"/><path d="M-522.7052,286.05q.0154-14.0556.0347-28.1112a7.4327,7.4327,0,0,1,.1158-2.0966c.2823.0791.56.1825.8473.2339,5.1975.93,10.309,2.2317,15.3912,3.6405,10.7419,2.9778,21.2892,6.5623,31.7589,10.3741,11.1359,4.0543,22.3592,7.7947,33.9983,10.1716a138.7068,138.7068,0,0,0,25.9888,2.9462,118.5515,118.5515,0,0,0,23.4266-2.1534,35.6233,35.6233,0,0,1,2.8634,5.0511c-.6434.025-1.2868.0719-1.93.0719q-65.2.0052-130.3993-.0018A6.3781,6.3781,0,0,1-522.7052,286.05Z" transform="translate(651.3588 -176.916)" fill="#4bbbbe"/><path d="M-571.9794,257.7578c.036.5246.1032,1.0493.1035,1.5739q.0057,13.3815-.0033,26.763c-1.872.0292-3.7442.0441-5.6157.09A12.3383,12.3383,0,0,0-589.6661,296.34a13.345,13.345,0,0,0-.1608,2.6241q-.0082,10.63-.0088,21.2594c-.0008.6994-.069,1.3987-.1059,2.0981-4.51-.0014-9.0194.0046-13.5291-.0086-1.3782-.0041-1.4122-.0284-1.413-1.33q-.0109-17.57.005-35.1406a6.4823,6.4823,0,0,1,.1155-.8668c.2819-.5788.5761-1.1523.8447-1.7375A36.9941,36.9941,0,0,1-595.5,271.4344,65.5734,65.5734,0,0,1-571.9794,257.7578Z" transform="translate(651.3588 -176.916)" fill="#4bbbbe"/><path d="M-536.3852,519.0064a1.2138,1.2138,0,0,1,.8708,1.4673c-.2,1.6828-.228,3.3865-.4439,5.0666-.5252,4.0855-.2438,8.182-.2635,12.2744-6.2337.37-12.4632.8305-18.7165.69-3.0917-.0693-6.1847-.0811-9.2771-.119a3.6043,3.6043,0,0,1-.1922-1.88q-.0569-7.236-.0825-14.4721.032-1.36.0632-2.72c.4851.0239.8512-.315,1.3172-.4107,2.77-.57,3.72-1.9759,3.3671-4.7347-.7172-5.611-2.4118-10.9809-3.9869-16.3818a1.1064,1.1064,0,0,0-.6024-.8053,8.8035,8.8035,0,0,1,2.6823-.9884c1.22,4.8773,2.4586,9.75,3.6456,14.6351a2.453,2.453,0,0,0,2.1351,2.0031,23.37,23.37,0,0,0,9.2352-.0328,2.822,2.822,0,0,0,2.4262-2.4048c.5069-2.4058.9139-4.8249,1.2394-7.2591.4338-3.2437.851-6.49,1.2754-9.7344l2.4262.3232c-.4723,3.9385-.97,7.8743-1.409,11.8166-.3686,3.3086-.8,6.61-.9465,9.944a2.5428,2.5428,0,0,0,1.717,2.7225A10.15,10.15,0,0,0-536.3852,519.0064Z" transform="translate(651.3588 -176.916)" fill="#147fc2"/><path d="M-329.4245,305.0975a16.7725,16.7725,0,0,1,.0285,3.6741q-.2606,23.2-.5548,46.4c-.0358,2.81-.1421,5.62-.2157,8.43l-7.9267.53c.4487-2.5-.2868-4.8793-.7686-7.2778a83.2737,83.2737,0,0,0-3.28-10.8984c.5387-.6195.2933-1.3113.1824-1.99-.187-1.1445-.4044-2.2849-.555-3.4341a1.2681,1.2681,0,0,1,1.0863-1.6486c1.8642-.45,3.656-1.212,5.527-1.6184a7.3024,7.3024,0,0,0,4.638-3.4252,4.5516,4.5516,0,0,0,.3245-4.4969,7.7056,7.7056,0,0,0-2.8026-3.504c.1569-.8977-.3737-1.6955-.3556-2.5847a5.1415,5.1415,0,0,0-2.1512-4.1595c-.3305-1.1645-.6751-2.3253-.9869-3.4948-.2244-.8417-.7706-.6787-1.3565-.4958s-.8677.4689-.6213,1.1409c.3768,1.0281.6832,2.0821,1.0194,3.125-.0412.349.0422.7974-.144,1.03-1.1433,1.4316-.3648,2.58.3917,3.8174.4311.7052.9716,1.314,1.4275,1.991a4.54,4.54,0,0,0,1.05,2.175c.7374,1.24.205,2.4378-.3148,3.4913a2.3257,2.3257,0,0,1-2.643.9014,30.1355,30.1355,0,0,0-4.8832-.1819l-1.9337.1071c-.56-.9031-1.1575-1.8007-.4212-2.8926l.0255-.0229a.6442.6442,0,0,0,.63-.5646c2.5223-2.6417,2.8911-5.7974,2.0288-9.1548a4.7782,4.7782,0,0,0-3.3511-3.77c-1.8993-.4616-3.7676-1.3128-5.8116-.9925l1.0659-4.9269c.1232-.561.142-1.1861.8555-1.3826.2269-.0625.5649-.1737.5209-.382-.2212-1.0476.5275-2.163-.23-3.1619q.002-.1418-.0048-.2835c.5134-.1114,1.0936.0338,1.524-.3966.6982-.0073,1.3964-.0175,2.0947-.0215C-340.6821,304.7164-335.0495,304.723-329.4245,305.0975Zm-16.6811,4.5707c-.9383.7171-.7838,1.632.4169,2.4676a4.7149,4.7149,0,0,0,1.5483-.2138c2.28-.7154,4.5909-1.3352,6.861-2.08.8565-.281,1.8824-.2719,2.4853-1.1356.52-.1038.8837-.4058.7117-.9435-.2306-.721-.3221-1.6418-1.434-1.6045-3.4829.73-6.8109,2.0008-10.2349,2.9369C-346.0021,309.1638-346.0287,309.45-346.1056,309.6682Z" transform="translate(651.3588 -176.916)" fill="#cce9f5"/><path d="M-225.197,426.9963q0-12.4979-.0108-24.9956a7.0617,7.0617,0,0,1,.5421-2.9085A3.6817,3.6817,0,0,1-221.18,396.81a3.6615,3.6615,0,0,1,3.487,2.2757,6.3291,6.3291,0,0,1,.5491,2.5536q-.0182,25.1716-.002,50.3433a7.9286,7.9286,0,0,1-.2783,1.9032c-.4761,1.95-1.5594,2.9646-3.3116,3.06-2.24.1213-3.4758-.7043-4.1662-2.7037a7.2415,7.2415,0,0,1-.2967-2.4261Q-225.1942,439.4061-225.197,426.9963Z" transform="translate(651.3588 -176.916)" fill="#5f5f5f"/><path d="M-559.114,260.405c-1.1267-1.1733-2.2379-2.362-3.387-3.5129-.508-.5088-.58-.91-.0521-1.4714a7.5562,7.5562,0,0,0,1.2079-1.6991,1.3949,1.3949,0,0,1,2.1171-.7382,2.8148,2.8148,0,0,0,1.4274,1.43,2.5485,2.5485,0,0,0,.3066.4174c4.2959,3.8951,8.6069,7.7737,12.8838,11.69.6275.5746,1.0079.5029,1.597-.04,2.7561-2.5412,5.5764-5.0128,8.3263-7.56a45.1471,45.1471,0,0,0,4.4732-4.1935c.5087-.167.5884-.5979.6425-1.0444a1.6616,1.6616,0,0,0,1.41-.5676c.5167-.5984,1.01-.4918,1.4414.0868.5915.7937,1.1422,1.6179,1.7371,2.4091.5128.682.2879,1.1044-.3366,1.5926a24.7831,24.7831,0,0,0-4.3186,4.3221,1.49,1.49,0,0,0-.4774.1921c-3.2175,2.9843-6.4268,5.9775-9.661,8.9912a7.49,7.49,0,0,0,.5286.6068q4.36,3.9572,8.7289,7.9044c.2559.2314.4935.5179.9052.4221a13.9005,13.9005,0,0,0,3.3085,3.3056c1.1036.78,1.9305,1.6845,1.6524,3.1747a61.0181,61.0181,0,0,1-6.97.0123,2.5067,2.5067,0,0,0-.2982-.4255c-3.7074-3.4874-7.43-6.9584-11.12-10.4645-.6033-.5732-1.0009-.5675-1.5953.0038-2.4042,2.3108-4.8674,4.56-7.2715,6.8709a43.5477,43.5477,0,0,0-4.1451,4.019,63.1571,63.1571,0,0,1-6.9944-.0151,2.62,2.62,0,0,1,1.4422-2.9078,9.9052,9.9052,0,0,0,2.4481-2.4742,1.747,1.747,0,0,0,1.0257-.6274q4.7682-4.3046,9.523-8.6239c.24-.218.5993-.3841.5659-.9082-3.0731-2.878-6.1921-5.81-9.3268-8.7246A6.47,6.47,0,0,0-559.114,260.405Z" transform="translate(651.3588 -176.916)" fill="#c16920"/><path d="M-541.6927,493.2006c-.4244,3.2449-.8416,6.4907-1.2754,9.7344-.3255,2.4342-.7325,4.8533-1.2394,7.2591a2.822,2.822,0,0,1-2.4262,2.4048,23.37,23.37,0,0,1-9.2352.0328,2.453,2.453,0,0,1-2.1351-2.0031c-1.187-4.8852-2.4259-9.7578-3.6456-14.6351a1.0033,1.0033,0,0,1,.7474-.306.3546.3546,0,0,0,.3435-.2925l.0221-.05a4.3658,4.3658,0,0,0,3.31-3.1334,3.727,3.727,0,0,1,2.3021-2.5727q4.737.0125,9.4743.0243a1.6126,1.6126,0,0,1,1.2722.8268c.1967.3032.382.5879.7837.6155A4.961,4.961,0,0,1-541.6927,493.2006Z" transform="translate(651.3588 -176.916)" fill="#fff"/><path d="M-388.28,286.1065a35.6127,35.6127,0,0,0-2.8633-5.0508q-.3865-.9516-.7731-1.9037c.7594-.02,1.5189-.0568,2.2784-.0568q17.192-.0012,34.384.0077c.5255,0,1.0511.0243,1.5758.0386-.8389,1.9306-2.1113,3.611-3.1185,5.4433-.28.5093-.5677,1.0142-.8518,1.5212-.4087.0295-.8174.0844-1.2261.0846q-14.09.0073-28.179,0C-387.4626,286.1905-387.8714,286.1358-388.28,286.1065Z" transform="translate(651.3588 -176.916)" fill="#eaa523"/><path d="M-575.44,418.5145c4.8924-.1945,8.5311,4.23,8.4852,8.4489a8.4619,8.4619,0,0,1-8.6859,8.4579,8.4774,8.4774,0,0,1-8.262-8.6492C-583.8323,422.4205-579.9245,418.2746-575.44,418.5145Z" transform="translate(651.3588 -176.916)" fill="#5f5f5f"/><path d="M-540.58,468.5869a4.9569,4.9569,0,0,1-2.1128,4.3264c-.6651.5489-1.4073,1.0044-2.1148,1.5026a1.4225,1.4225,0,0,0-.9272.6642.6854.6854,0,0,0-.6528.493c-.3656,1.6434-1.3264,3.0974-1.5134,4.7949-1.1833.441-1.518,1.6018-2.1379,2.5206a15.6639,15.6639,0,0,1-6.8561,3.8451,18.6429,18.6429,0,0,1-3.6023-4.7406,15.186,15.186,0,0,1-.7947-4.5932c.0827-1.1739.6355-2.2228.7786-3.3715.3435-.4692.684-.9418,1.03-1.41,2.6325-3.5579,6.3691-4.67,10.7275-3.2164.5841.1947,1.1215.6884,1.8161.373,1.27,1.1411.57,2.7937.9649,4.33a32.5471,32.5471,0,0,0,3.3924-3.48C-541.9925,469.8835-541.56,468.9553-540.58,468.5869Z" transform="translate(651.3588 -176.916)" fill="#c16920"/><path d="M-566.2109,524.4316c-.16,2.9873-.8414,5.9014-1.259,8.8525-.5817,4.1109-1.2648,8.2073-1.8865,12.3127a5.1868,5.1868,0,0,0,.0528,2.443,11.758,11.758,0,0,1,.073,6.2391,6.5834,6.5834,0,0,0,.4645,4.0916c.3525.8121.9958,1.6015.7223,2.6344a2.5508,2.5508,0,0,1-1.9592-1.6719c-1.5009-2.9159-2.8678-5.8607-2.9842-9.26-.22-6.4381-.6343-12.87-.838-19.3083a53.1888,53.1888,0,0,1,1.0527-10.1158q2.7228,1.4,5.4458,2.8009C-566.9359,523.756-566.31,523.7945-566.2109,524.4316Z" transform="translate(651.3588 -176.916)" fill="#ecc8b1"/><path d="M-589.8834,416.3843c-3.6816-5.29-6.8589-10.8876-10.0949-16.4525-5.3941-9.276-10.4555-18.73-15.0409-28.4273a169.4848,169.4848,0,0,1-11.1345-29.724c-1.046-4.02-1.8073-8.09-2.6239-12.1548-.2561-1.2747.5925-1.7485,1.4571-2.5479a113.2132,113.2132,0,0,0,3.2493,15.5087c1.1287,4.3077,2.6225,8.495,4.1542,12.6694a240.4922,240.4922,0,0,0,12.6776,27.8005c2.8039,5.4033,5.7716,10.72,8.8148,15.9951,2.34,4.0555,4.6934,8.101,7.1635,12.0777.3516.566.5589,1.3342,1.3969,1.4626A24.7367,24.7367,0,0,1-589.8834,416.3843Z" transform="translate(651.3588 -176.916)" fill="#0fa182"/><path d="M-589.8668,454.214c-1.4646-1.7415-2.9216-3.49-4.3954-5.2232a83.716,83.716,0,0,0-16.9412-15.6779,4.6242,4.6242,0,0,1-.6175-.6057c0-1.9778,0-3.9563,0-6.3267,2.7283,1.4111,4.9755,2.9359,7.3577,4.2078,2.368,1.2642,4.717,2.5665,7.1152,3.7706,2.45,1.23,4.949,2.361,7.4266,3.5355A5.3149,5.3149,0,0,1-589.9,439.67h-11.7043l-.1723.3706,11.858,10.5881A19.1746,19.1746,0,0,1-589.8668,454.214Z" transform="translate(651.3588 -176.916)" fill="#eaa523"/><path d="M-206.1614,362.867a68.9866,68.9866,0,0,0,4.8921-6.3727,247.6917,247.6917,0,0,0,13.97-21.6652,201.8782,201.8782,0,0,0,9.5495-18.5938,193.8048,193.8048,0,0,0,7.3173-18.231c.3455-1.0545.6632-2.1218.92-3.2008a1.8593,1.8593,0,0,1,2.1176-1.59c.368.5129-.0011.9442-.1276,1.3433a204.5385,204.5385,0,0,1-9.04,23.2054c-2.2675,4.9634-4.774,9.7971-7.37,14.5834-2.7322,5.0367-5.6963,9.9426-8.7933,14.7709-3.8209,5.957-7.9647,11.68-12.1779,17.3579a4.2616,4.2616,0,0,1-1.254,1.2138A12.4991,12.4991,0,0,1-206.1614,362.867Z" transform="translate(651.3588 -176.916)" fill="#4bbbbe"/><path d="M-556.0523,286.1381a43.5477,43.5477,0,0,1,4.1451-4.019c2.4041-2.3108,4.8673-4.56,7.2715-6.8709.5944-.5713.992-.577,1.5953-.0038,3.69,3.5061,7.4125,6.9771,11.12,10.4645a2.5067,2.5067,0,0,1,.2982.4255Q-543.8372,286.1365-556.0523,286.1381Z" transform="translate(651.3588 -176.916)" fill="#4bbbbe"/><path d="M-589.92,521.1687q-4.7155-4.21-9.4293-8.4215c-1.7389-1.5591-3.4606-3.1376-5.32-4.8255,1.4775-1.3933,2.8736-2.695,4.2506-4.0165.4562-.4378,1.0473-.7768,1.2038-1.4651a104.0049,104.0049,0,0,0,9.33,4.897C-589.8178,511.948-589.7519,516.5587-589.92,521.1687Z" transform="translate(651.3588 -176.916)" fill="#4bbbbe"/><path d="M-338.0932,364.1317l7.9267-.53a.974.974,0,0,1,.9344.57c.0589.5194.1,1.0388.1806,1.552.178,1.1342.1884,1.1573-.9264,1.2644-2.7142.2606-5.4308.4953-8.1462.7436-.2884.0263-.5749.0736-.8623.1112l-8.729.786-1.9819.2272a41.2164,41.2164,0,0,0-6.5271.61c-.2909-.0029-.5839-.03-.8723-.0049q-3.49.3026-6.9787.6219c-.517.0465-1.1222.2228-1.2307-.5542-.137-.981-.2183-1.97-.2914-2.9584-.0038-.0518.2935-.1258.4507-.1894a1.49,1.49,0,0,0,1.1293-.1892l6.3041-.5258a6.7623,6.7623,0,0,0,.8743.0437c3.1582-.2384,6.3169-.4724,9.4729-.7388C-344.2736,364.71-341.1841,364.413-338.0932,364.1317Z" transform="translate(651.3588 -176.916)" fill="#c16920"/><path d="M-567.3269,523.4491l-5.4456-2.8005a3.1593,3.1593,0,0,1-.1047-2.231,116.7992,116.7992,0,0,1,3.4605-16.4478,9.8327,9.8327,0,0,1,1.1255-2.7427c.9006,2.3218.6566,4.806.95,7.2085.2685,2.1981.5633,4.3841.9442,6.5649.26,1.4866.8022,2.9882.4791,4.4974A51.73,51.73,0,0,1-567.3269,523.4491Z" transform="translate(651.3588 -176.916)" fill="#fff"/><path d="M-564.3319,496.9819a1.1064,1.1064,0,0,1,.6024.8053c1.5751,5.4009,3.27,10.7708,3.9869,16.3818.3526,2.7588-.5966,4.1651-3.3671,4.7347-.466.0957-.8321.4346-1.3174.4108-.1948-1.5609-.3825-3.1228-.5854-4.6826-.3984-3.0621-.7957-6.1244-1.2117-9.1841-.33-2.4235-.6863-4.8433-1.031-7.2648A13.24,13.24,0,0,1-564.3319,496.9819Z" transform="translate(651.3588 -176.916)" fill="#fff"/><path d="M-603.8167,542.5c1.5925-1.5413,3.15-3.1213,4.7853-4.6154,3.0655-2.8,5.9585-5.7868,9.15-8.4506.07,4.373.1127,8.7461-.0219,13.1187Q-596.86,542.5266-603.8167,542.5Z" transform="translate(651.3588 -176.916)" fill="#4bbbbe"/><path d="M-564.2154,538.3861c3.0924.0379,6.1854.05,9.2771.119,6.2533.14,12.4828-.32,18.7165-.69a3.7288,3.7288,0,0,1-.0533,2.5453c-6.1929.698-12.4081.3692-18.6149.388a67.4871,67.4871,0,0,1-7.7222-.3493,6.2646,6.2646,0,0,1-1.7242-.3A2.06,2.06,0,0,1-564.2154,538.3861Z" transform="translate(651.3588 -176.916)" fill="#e24d5f"/><path d="M-589.9188,450.6285l-11.858-10.5881.1723-.3706H-589.9C-589.7963,443.3228-589.7618,446.9758-589.9188,450.6285Z" transform="translate(651.3588 -176.916)" fill="#4bbbbe"/><path d="M-596.4629,372.1621c-.5891-1.3352-1.2259-2.6518-1.7561-4.01-.7411-1.8989-.5767-2.11,1.421-2.1165,1.7561-.006,3.5123.0053,5.2683-.0057.4539-.0029.9492.1233,1.3157-.2932a.9022.9022,0,0,1,.3092-.0678c.11,4.0358.1465,8.0715-.02,12.1066-.5708-.4838-1.1455-.9627-1.7117-1.4514A50.8444,50.8444,0,0,0-596.4629,372.1621Z" transform="translate(651.3588 -176.916)" fill="#4bbbbe"/><path d="M-589.9239,340.2238l-11.299-10.1278.1535-.3138h11.1734C-589.8083,333.263-589.7515,336.7437-589.9239,340.2238Z" transform="translate(651.3588 -176.916)" fill="#4bbbbe"/><path d="M-589.9483,358.176h-9.9258l-.1555-.3883,10.1442-9.35C-589.8312,351.6843-589.7219,354.9313-589.9483,358.176Z" transform="translate(651.3588 -176.916)" fill="#4bbbbe"/><path d="M-267.5639,284.8176q-.293.643-.5857,1.286c-3.5583.0061-7.1172.0357-10.6757.0124-4.6091-.03-9.2184.2431-13.8246-.0124a60.4067,60.4067,0,0,1,8.8682-1.707,64.7021,64.7021,0,0,1,8.5709-.3453,28.2405,28.2405,0,0,1,6.2507.6561A10.767,10.767,0,0,0-267.5639,284.8176Z" transform="translate(651.3588 -176.916)" fill="#8bccc4"/><path d="M-567.2552,498.183c.3447,2.4215.7015,4.8413,1.031,7.2648.416,3.06.8133,6.122,1.2117,9.1841.2029,1.56.3906,3.1217.5854,4.6826q-.0311,1.36-.063,2.72a1.9158,1.9158,0,0,0-.3739,1.2647c-.11.8219-.6162,1.0924-1.3472,1.134-.0989-.6382-.7247-.6767-1.1155-.9832a51.7967,51.7967,0,0,0,1.4088-5.9516c.3231-1.5092-.2194-3.0108-.4791-4.4974-.3809-2.1808-.6757-4.3668-.9442-6.5649-.2934-2.4025-.0494-4.8867-.95-7.2085A1.197,1.197,0,0,1-567.2552,498.183Z" transform="translate(651.3588 -176.916)" fill="#cfcfcf"/><path d="M-596.4629,372.1621a50.8444,50.8444,0,0,1,4.8261,4.162c.5662.4887,1.1409.9676,1.7117,1.4514a56.736,56.736,0,0,1,.0359,6.88A104.1735,104.1735,0,0,1-596.4629,372.1621Z" transform="translate(651.3588 -176.916)" fill="#eaa523"/><path d="M-349.3387,303.016c.1405.6735.84,1.0519.9274,1.7541-.4293.43-1.01.2853-1.5232.3962a1.9334,1.9334,0,0,0-.508.022c-.2078.0642-.4791.2225-.3752.447.126.2721.3921.0874.5911-.0095.1031-.05.1984-.1165.2972-.1755.7575.9989.0088,2.1143.23,3.1619.044.2083-.294.32-.5209.382-.7135.1965-.7323.8216-.8554,1.3835-.6918.06-.8143.7645-1.2553,1.1079a4.2133,4.2133,0,0,0-2.1427-1.1424,21.6484,21.6484,0,0,0,1.8151-5.5637,6.2637,6.2637,0,0,1,2.1864-1.1362A.99.99,0,0,0-349.3387,303.016Z" transform="translate(651.3588 -176.916)" fill="#ecc8b1"/><path d="M-329.33,297.7222q-9.3695-.0024-18.7387-.0044c.1954-.4193.5831-.3029.9085-.3033q8.4657-.01,16.9313,0C-329.907,297.4151-329.5149,297.2864-329.33,297.7222Z" transform="translate(651.3588 -176.916)" fill="#cce9f5"/><path d="M-603.8167,542.5q6.9565.0263,13.913.0527-.0122.1839-.0238.3675c-4.1011-.0086-8.2022-.0058-12.303-.04C-602.7662,542.8761-603.4246,543.1816-603.8167,542.5Z" transform="translate(651.3588 -176.916)" fill="#c16920"/><path d="M-560.5587,495.395a.3546.3546,0,0,1-.3435.2925Z" transform="translate(651.3588 -176.916)" fill="#e4f2f3"/><path d="M-559.114,260.405a6.47,6.47,0,0,1,1.7454,1.4519c3.1347,2.9148,6.2537,5.8466,9.3268,8.7246.0334.5241-.3264.69-.5659.9082q-4.7511,4.3234-9.523,8.6239a1.747,1.747,0,0,1-1.0257.6274Q-559.1354,270.5727-559.114,260.405Z" transform="translate(651.3588 -176.916)" fill="#4bbbbe"/><path d="M-529.6133,279.6418c-.4117.0958-.6493-.1907-.9052-.4221q-4.3677-3.9486-8.7289-7.9044a7.49,7.49,0,0,1-.5286-.6068c3.2342-3.0137,6.4435-6.0069,9.661-8.9912a1.49,1.49,0,0,1,.4774-.1921Q-529.6256,270.5833-529.6133,279.6418Z" transform="translate(651.3588 -176.916)" fill="#4bbbbe"/><path d="M-601.7919,351.6369c-.6386-1.8455-.4192-3.8-.6381-5.6945-.3852-3.334-.58-6.6952-1-10.0312-.0357-.283.13-.4223.3225-.56,2.93,2.7048,5.8485,5.4208,8.7965,8.105.6139.559.6965.94.0184,1.5294C-596.8148,347.1772-599.2956,349.4159-601.7919,351.6369Z" transform="translate(651.3588 -176.916)" fill="#4bbbbe"/><path d="M-472.0467,229.7422q4.1848,2.8742,8.3712,5.7464c1.9775,1.35,3.9677,2.6814,5.9523,4.0211a15.0752,15.0752,0,0,1-2.31,2.6043.84.84,0,0,1-1.3651-.0173c-.1225-.125-.2456-.2494-.366-.3764q-5.4266-5.7206-10.85-11.444a2.7232,2.7232,0,0,1-.2633-.3916C-472.6155,229.5753-472.3226,229.7185-472.0467,229.7422Z" transform="translate(651.3588 -176.916)" fill="#3e5ba7"/><path d="M-475.3867,234.8252q-2.3107-1.5751-4.6215-3.15c.399-.59.8017-1.02,1.46-.251C-477.5407,232.6-476.1869,233.455-475.3867,234.8252Z" transform="translate(651.3588 -176.916)" fill="#3e5ba7"/><path d="M-393.9455,235.6916l-.2828-.1367c.2458-.1869.276-.0519.25.1674Z" transform="translate(651.3588 -176.916)" fill="#fff"/><path d="M-548.8233,567.511q-1.2649.024-2.5295.0483.4212-3.5428.8415-7.0865l.3516-.0159C-549.6743,562.8-549.0862,565.12-548.8233,567.511Z" transform="translate(651.3588 -176.916)" fill="#242d30"/><path d="M-604.829,514.8934a3.1046,3.1046,0,0,1,.6034.3047c3.2947,3.0745,6.5753,6.164,9.8808,9.2267.5679.5262.7977.8872.0849,1.5192-3.453,3.0619-6.8669,6.1677-10.3326,9.292C-604.9936,533.7822-605.1237,521.6218-604.829,514.8934Z" transform="translate(651.3588 -176.916)" fill="#4bbbbe"/><path d="M-352.6586,304.78a21.6526,21.6526,0,0,1-1.8152,5.5641c-2.8475,1.2717-4.3072,3.8319-5.7962,6.3323a9.6731,9.6731,0,0,0-1.0419,7.0756c.3879,1.9982,1.0982,3.9095,1.3517,5.9432.38,3.0508,1.1105,6.0539,1.3,9.1341-.1392.5036-.2961,1.003-.4148,1.5114q-3.04,13.02-6.0714,26.041c-.1572.0636-.4545.1376-.4507.1894.0731.9881.1544,1.9774.2914,2.9584.1085.777.7137.6007,1.2307.5542q3.4891-.3136,6.9787-.6219c.2884-.0251.5814.002.8722.0051a31.5267,31.5267,0,0,0,1.0907,10.643c-3.17.6182-6.4039.3891-9.6025.6237a43.2712,43.2712,0,0,1-10.6951-.1952,7.1713,7.1713,0,0,0-1.5807-.0455c-5.16.2528-10.3-.3216-15.4507-.4419-2.3238-.0542-4.6744-.11-6.9994-.2987-4.4275-.36-8.8647-.4838-13.2922-.757-2.2187-.1369-4.456-.0308-6.6465-.3158-2.6907-.35-5.4026-.0333-8.0546-.369-3.5179-.4453-7.03-.052-10.5262-.3269a64.9014,64.9014,0,0,0-7.5305-.3022q-5.9485.2236-11.89.6228c-3.348.2277-6.5262,1.219-9.8156,1.6662a49.2193,49.2193,0,0,1-7.9866.8391c-1.7139-.0481-3.3533.4285-5.0639.4059a116.7257,116.7257,0,0,1-13.6054-1.02,56.2548,56.2548,0,0,1-10.7151-2.5026,27.7156,27.7156,0,0,1-8.5711-4.37c-3.6387-2.9054-6.5479-6.3281-6.9845-11.31a11.0273,11.0273,0,0,1-.0174-4.3234c.2829-.9272-.3065-1.294-1.0627-1.4665a34.0587,34.0587,0,0,1-7.4965-2.948,47.9215,47.9215,0,0,1-9.0018-6.0462,20.6006,20.6006,0,0,1-5.2635-6.2492c-2.1325-3.9844-.5915-6.067,2.6005-8.4378a6.0538,6.0538,0,0,1,1.4114-.7126c2.9712-1.1626,5.0965-3.3217,7.2469-5.6119,3.5954-3.829,7.0393-7.8951,11.8011-10.4254a17.501,17.501,0,0,1,8.03-2.2226c3.9321-.0516,7.8807-.2241,11.7931.0579,2.9055.2094,5.8215.229,8.73.5263a29.6707,29.6707,0,0,0,9.7909-.3607,22.7228,22.7228,0,0,0,5.5648-2.59c3.8048-2.0847,7.69-4,11.63-5.8182a79.0124,79.0124,0,0,1,10.1331-3.9491,60.9266,60.9266,0,0,1,14.3925-2.7454,39.6417,39.6417,0,0,1,14.405,2.0664c5.7532,1.8294,11.2727,4.2494,16.9079,6.3753a15.7848,15.7848,0,0,0,8.2368.9129c3.1553-.5015,6.3308-.9452,9.5269-1.25,3.4777-.3318,6.9886-.342,10.4393-.9591a1.4635,1.4635,0,0,1,.3508-.0211c2.9919.1987,5.9577-.2983,8.9328-.44,3.0985-.148,6.22.0027,9.2852-.3445C-358.7251,304.6821-355.6972,304.8428-352.6586,304.78Zm-126.564,36.4062a19.6258,19.6258,0,0,0-.373-4.5529c-1.2493-6.8326-4.9519-11.5523-11.8128-13.4211a23.0392,23.0392,0,0,0-8.0177-.563,15.74,15.74,0,0,0-14.3,11.651,24.3773,24.3773,0,0,0,.05,13.8716,15.3135,15.3135,0,0,0,11.7362,11.1937A21.415,21.415,0,0,0-491.84,359.36a15.0136,15.0136,0,0,0,9.4988-6.4576A20.9564,20.9564,0,0,0-479.2226,341.1857Zm39.9069.4164a26.0439,26.0439,0,0,0-.4641-5.8475c-1.3446-5.9147-4.612-10.2133-10.4812-12.1965a21.2558,21.2558,0,0,0-9.3694-.88c-6.6533.7783-11.4026,4.0782-13.6965,10.4737a23.5576,23.5576,0,0,0,.1567,16.5261,14.6283,14.6283,0,0,0,9.3644,9.1478,20.8254,20.8254,0,0,0,13.803-.0089,14.8971,14.8971,0,0,0,9.1913-8.8709A20.2334,20.2334,0,0,0-439.3157,341.6021Zm53.103,18.3918a24.8032,24.8032,0,0,0,5.3164-.6963c3.5222-.9935,6.48-2.7751,8.054-6.2623,2.0639-4.5732,1.3184-10.8064-4.6954-13.5084a30.8808,30.8808,0,0,0-4.6182-1.68c-2.149-.5795-4.2984-1.1576-6.4523-1.7188a9.1228,9.1228,0,0,1-2.72-1.21,3.3143,3.3143,0,0,1-.3647-5.621,7.1978,7.1978,0,0,1,4.7522-1.55c2.8449-.0995,5.1668.8676,6.5086,3.5859a14.7269,14.7269,0,0,0,1.2651,2.1089,2.9071,2.9071,0,0,0,3.3946,1.2051,3.3763,3.3763,0,0,0,2.2687-2.8621,5.7662,5.7662,0,0,0-.4672-2.92,9.7039,9.7039,0,0,0-3.9888-4.3288,15.0944,15.0944,0,0,0-7.5658-2.0069,17.83,17.83,0,0,0-9.5237,1.9638,8.9848,8.9848,0,0,0-4.8687,8.0134,8.6675,8.6675,0,0,0,4.6054,8.13,16.614,16.614,0,0,0,2.3831,1.1206,44.4579,44.4579,0,0,0,5.8863,1.7682,21.1108,21.1108,0,0,1,5.1865,1.6186,4.4086,4.4086,0,0,1,2.7175,3.8049,4.6872,4.6872,0,0,1-2.462,4.3648,8.1941,8.1941,0,0,1-12.08-3.6678,8.3545,8.3545,0,0,0-1.4335-2.6013,3.0425,3.0425,0,0,0-4.2819-.2938,3.5381,3.5381,0,0,0-1.0944,3.8389,11.393,11.393,0,0,0,6.0227,7.6232A19.15,19.15,0,0,0-386.2127,359.9939Zm-46.8263-18.5122q0,6.6029,0,13.2059c0,.1174.0057.235,0,.3521a6.44,6.44,0,0,0,.3714,2.5956,3.4532,3.4532,0,0,0,3.2274,2.3117,3.47,3.47,0,0,0,3.27-1.9961,5.4765,5.4765,0,0,0,.5089-2.5621q-.0158-4.05.001-8.1c.006-2.2428-.193-2.03,2.1233-2.0412,1.9369-.01,3.8745.0214,5.81-.0253a17.4524,17.4524,0,0,0,5.8508-1.0954,9.3121,9.3121,0,0,0,6.2221-7.4678,17.4615,17.4615,0,0,0,.0947-4.3918,9.4331,9.4331,0,0,0-7.06-8.4875,20.6146,20.6146,0,0,0-5.0453-.65c-3.5212-.0393-7.0431-.0179-10.5646-.0209a6.969,6.969,0,0,0-1.7429.1869,3.5039,3.5039,0,0,0-3.0222,3.3969,15.9832,15.9832,0,0,0-.0433,1.7591Q-433.0417,334.9668-433.039,341.4817Z" transform="translate(651.3588 -176.916)" fill="#cce9f5"/><path d="M-353.37,448.82a76.2084,76.2084,0,0,1-7.4548,33.8951c-3.9081,8.0442-9.1554,15.0266-16.5923,20.1711a32.759,32.759,0,0,1-19.8153,6.1879,33.6754,33.6754,0,0,1-20.514-7.8007c-7.1091-5.6454-12.0318-12.939-15.6286-21.1785a75.0531,75.0531,0,0,1-5.7614-22.2169,79.729,79.729,0,0,1,5.38-39.5,55.0144,55.0144,0,0,1,14.1748-20.55,35.1741,35.1741,0,0,1,17.8707-8.9023,31.8963,31.8963,0,0,1,22.1385,4.3573,47.1582,47.1582,0,0,1,16.1984,16.8269,70.0312,70.0312,0,0,1,8.885,24.8695c.2654,1.6192.4691,3.2488.6807,4.8762A71.7765,71.7765,0,0,1-353.37,448.82Zm-26.56.9928a99.7644,99.7644,0,0,0-2.1-20.0437,50.6937,50.6937,0,0,0-5.2682-14.4887,17.8008,17.8008,0,0,0-4.8355-5.75,7.656,7.656,0,0,0-9.7645.0508,17.1739,17.1739,0,0,0-4.3638,5.0144,45.4692,45.4692,0,0,0-5.2851,13.5423,94.3773,94.3773,0,0,0-2.2413,27.7711,88.1856,88.1856,0,0,0,2.5687,16.83,41.9784,41.9784,0,0,0,5.786,13.5118,14.8224,14.8224,0,0,0,4.1858,4.2208,7.3822,7.3822,0,0,0,8.2971.145,14.5383,14.5383,0,0,0,4.2633-4.1424,35.3694,35.3694,0,0,0,4.5838-9.2722C-381.0444,468.3405-380.1014,459.1549-379.9294,449.8125Z" transform="translate(651.3588 -176.916)" fill="#3e5ba7"/><path d="M-313.9557,469.0375a2.0852,2.0852,0,0,0,1.5046.2775q8.8923.0161,17.7846.0069c.2934,0,.587-.01.88-.0036.56.0124.89-.2047.8721-.8156-.0118-.41.0039-.8216.0039-1.2324q.0007-8.54.0046-17.08c.0024-1.3729.0285-1.4189,1.331-1.3427,4.2746.25,8.5472.5363,12.82.81,2.985.1913,5.9693.3947,8.955.5742,1.534.0922,1.5521.0739,1.5545,1.5868q.0122,7.7476.0035,15.4954c0,.4109.0114.8218.0069,1.2325-.0054.4941.2084.7662.7245.7646.4108-.0012.8216.01,1.2324.01,4.05.0009,8.1-.0075,12.15.0052,1.3709.0043,1.4021.0283,1.4037,1.3405q.0153,12.3259.0011,24.6519c-.0013,1.3823-.026,1.3979-1.5017,1.4011-4.05.0087-8.1.0026-12.15.0037-.4107,0-.8215.0065-1.2323.0131-.4362.007-.62.2543-.6244.6668-.0042.4109-.01.8217-.01,1.2325q-.0009,8.8923-.0007,17.7845c0,.4109-.0151.822-.0035,1.2325.0174.61-.3045.8358-.8717.82-.2932-.0082-.5868.0033-.88.0033q-10.5651,0-21.13,0a6.3793,6.3793,0,0,0-.7039.0023c-.8841.0988-1.1-.3594-1.0882-1.1525.0315-2.0538.01-4.1085.01-6.1628,0-4.1673.0066-8.3347-.0028-12.502-.0049-2.1505.2206-1.9354-2.0255-1.9359q-26.5887-.0068-53.1776-.0026h-1.9911a2.998,2.998,0,0,1,.4713-1.8457q12.9789-31.6567,25.9734-63.3073,8.7149-21.2374,17.4263-42.4765c.7256-1.769.7178-1.7521,2.5485-1.3935q13.1076,2.5673,26.2189,5.1161a.7583.7583,0,0,1,.6857.4441Z" transform="translate(651.3588 -176.916)" fill="#e24d5f"/><path d="M-541.6927,493.2006a4.9619,4.9619,0,0,0-1.7012-2.0954q1.1367-2.8022,2.2732-5.6043a2.438,2.438,0,0,0,.6031-1.441q7.3633-17.8956,14.7252-35.7918,12.1949-29.7,24.374-59.4072c.617-1.5038.6288-1.5339,1.9945-1.2672q13.2835,2.5942,26.5627,5.2111a.9663.9663,0,0,1,.7779.486l-37.1344,75.7133a1.9853,1.9853,0,0,0,1.5122.3109q8.893.0157,17.7863.0045c1.6264-.0017,1.6409-.0157,1.6429-1.6319q.01-8.4529.0031-16.9058c0-.4109.0073-.8218.0073-1.2326,0-.5059.2373-.7558.7554-.73.7033.0356,1.408.0492,2.1107.0939q7.9032.5018,15.8056,1.0132c1.5806.1019,3.1606.2123,4.7411.316,1.2953.0851,1.3264.0831,1.3333,1.4712.018,3.6394.0063,7.2789.0065,10.9183,0,1.7023-.01,3.4047.0032,5.1069.0119,1.5542.0227,1.5742,1.5338,1.5789,3.8155.012,7.6311-.0117,11.4466.01,2.7563.0154,2.553-.4237,2.5549,2.5194q.007,11.27.0015,22.541c0,.3522.0087.7047-.0024,1.0566-.039,1.2414-.0415,1.2693-1.284,1.2736-3.9916.0139-7.9833-.0072-11.9749.01-2.5316.0107-2.27-.3157-2.2749,2.2257-.0119,5.9288,0,11.8575-.0064,17.7863-.0019,1.7229-.0159,1.7338-1.7566,1.735q-10.5662.0069-21.1323.0006c-1.8552-.0009-1.8654-.009-1.8669-1.8074q-.0075-8.8931-.0024-17.7863c0-.4695-.0146-.9391-.0084-1.4086a.6429.6429,0,0,0-.7431-.7434c-.4695.0045-.9391-.0058-1.4087-.0062q-17.61-.0144-35.22-.0279a6.6778,6.6778,0,0,1,1.2421-1.7793.9952.9952,0,0,0,.1524-1.3521c2.1317-2.7066,4-5.5967,5.8972-8.4667a3.7,3.7,0,0,0,.4487-1.3115c.5041-2.3556.3086-4.7625.5534-7.141.34-3.3017.2507-6.6455.5081-9.9587a29.0628,29.0628,0,0,1,.4382-4.34,3.993,3.993,0,0,0-1.0126-4.02c.483-1.4752.5654-1.5042,2.0412-1.5641.8457-.0344,1.8583.5271,2.4958-.1561a8.3517,8.3517,0,0,0,1.1113-2.3354.87.87,0,0,0,.0386-.17,3.3206,3.3206,0,0,0,.7291-1.6958c-2.544-.9728-5.1066-1.9393-7.6562-2.9389-.5293-.2076-.7816.0193-.9395.44a7.442,7.442,0,0,0-.2343,1.0153c-.1.2088-.2088.4141-.3.6269-.7488,1.75-.7587,1.7619.5792,3.05a2.3733,2.3733,0,0,1,.9276,2.3035c-1.0631.11-1.2775,1.1873-1.9658,1.7245.5694,1.1364-.3358,1.9846-.5788,2.9622a2.8124,2.8124,0,0,0-.5541,2.7243c.1288.5613.3775,1.11,1.1459.9926a3.5665,3.5665,0,0,1-.2168,1.7275c-.9741,4.0415-2.0424,8.0608-2.9682,12.1129a8.0764,8.0764,0,0,1-2.294,4.0475,44.6448,44.6448,0,0,0-3.89,3.7884c-.4233.0035-.7609-.6251-1.2516-.1533-1.9557,1.88-4.5619,3.02-6.1294,5.334a3.7767,3.7767,0,0,1-1.9306,1.36Z" transform="translate(651.3588 -176.916)" fill="#e24d5f"/><path d="M-539.2665,493.5238a3.7767,3.7767,0,0,0,1.9306-1.36c1.5675-2.3138,4.1737-3.4536,6.1294-5.334.4907-.4718.8283.1568,1.2518.1532.0011.5282.45.7722.7121,1.1381,1.2764,1.7788,3.0678,3.13,4.1758,5.0472a8.3063,8.3063,0,0,0-1.5822,1.6263c-1.6281,2.0532-3.1911,4.1624-4.9065,6.14-.5713.6586-.8731,2.0409-1.8394,1.7993-.68-.17-.5317-1.5289-.8067-2.3387-.7682-2.2631-1.5738-4.5114-3.4824-6.1292-.0759-.1354.1483-.5192-.2577-.3542-.0809.0329.0872.2852.2552.3564a3.0493,3.0493,0,0,0,.3908,1.5018c1.4049,3.4481,2.6229,6.9648,3.8374,10.4828q-.4105,2.7336-.8219,5.4672c-.3112,2.05-.6988,4.0912-.9073,6.151-.0884.8724-.4974,1.0747-1.1976,1.1354a10.1432,10.1432,0,0,1-3.52-.9992,2.5428,2.5428,0,0,1-1.717-2.7225c.1461-3.3339.5779-6.6354.9465-9.944C-540.2364,501.3981-539.7388,497.4623-539.2665,493.5238Z" transform="translate(651.3588 -176.916)" fill="#fff"/><path d="M-355.1338,380.1094a31.5267,31.5267,0,0,1-1.0907-10.643,41.1815,41.1815,0,0,1,6.5258-.61,6.0446,6.0446,0,0,0-.234,4.593,45.964,45.964,0,0,0,1.6883,4.9378c.6822,2.5549.1883,5.2205.735,7.79.1932.9079.3394,1.8257.5066,2.7389-1.5257.6381-3.2279.4939-4.7654,1.0776-1.0633-2.6452-1.8352-5.3883-2.7192-8.0938A6.6706,6.6706,0,0,0-355.1338,380.1094Z" transform="translate(651.3588 -176.916)" fill="#147fc2"/><path d="M-347.7154,368.6287l8.729-.786c-.21,1.2583-.4691,2.5109-.618,3.7764a11.2252,11.2252,0,0,0,.3022,5.0021q.0513.358.1022.7158a.33.33,0,0,0,.16.3981,75.5564,75.5564,0,0,0,2.0259,8.2811c.1307.5021.2354,1.011.3523,1.5171q-2.0479.5658-4.0965,1.1309c-.8254-.0951-.9336-.8044-1.13-1.3882-.575-1.7105-1.14-3.4257-1.6451-5.1578-.4369-1.5-.8862-2.9921-1.4585-4.446A46.9747,46.9747,0,0,0-347.7154,368.6287Z" transform="translate(651.3588 -176.916)" fill="#147fc2"/><path d="M-540.5176,484.06a2.4386,2.4386,0,0,1-.6033,1.4413c-.8351-.8187-1.5157-.2812-2.0532.3381a10.6655,10.6655,0,0,0-2.2757,3.8237q-4.7373-.012-9.4743-.0243c-.0709-.89-1.1743-1.2487-1.13-2.1966a20.6374,20.6374,0,0,0,9.5349-.1329c-1.4511-1.4443-3.24-2.3452-3.52-4.4206.62-.9188.9546-2.08,2.138-2.52a5.0263,5.0263,0,0,0,2.7046,1.1041,10.2372,10.2372,0,0,1-.5385-6.3922,1.4225,1.4225,0,0,1,.9272-.6642c.5212,1.146.6747,2.5,1.9041,3.2449a.8176.8176,0,0,1,.277.8C-542.8588,480.6817-541.5727,482.3266-540.5176,484.06Z" transform="translate(651.3588 -176.916)" fill="#ecc8b1"/><path d="M-360.4219,539.0936q0-3.5783.0019-7.1565a8.9486,8.9486,0,0,1,.0482-1.2266c.0631-.45.4388-.4817.8016-.4772.3656.0045.7188.0517.7676.516a8.4552,8.4552,0,0,1,.0356.8766c.0024,3.1639.0152,6.3279-.0134,9.4916-.0043.47.3017,1.1464-.4067,1.3679a1.5334,1.5334,0,0,1-1.9152-.78c-1.4461-2.2729-2.96-4.5029-4.4581-6.7422a4.0791,4.0791,0,0,0-1.2891-1.4939c0,1.1288.0007,2.0872,0,3.0457-.0017,1.7577-.0067,3.5154-.0052,5.2731,0,.4933-.1974.7537-.726.7611-.5429.0075-.9222-.12-.9188-.7574.0041-.7617-.0055-1.5234-.0057-2.285-.0007-2.6952-.0067-5.39.0071-8.0855.0023-.4368-.1639-1.0327.4842-1.1532.5632-.1046,1.18-.1755,1.568.458.2443.3993.5194.78.7792,1.17q2.4279,3.6446,4.8554,7.29Z" transform="translate(651.3588 -176.916)" fill="#0fa182"/><path d="M-479.5639,537.044a21.8154,21.8154,0,0,1,3.7233,5.3264A1.89,1.89,0,0,1-478.5,541.351a26.005,26.005,0,0,0-2.0182-3.0812,3.8318,3.8318,0,0,0-3.8374-1.0442c-.427.1628-.4349.5-.4374.85-.0081,1.171-.0225,2.3424-.0034,3.5131.01.6254-.1545.9959-.8781.9705-.6175-.0217-.8045-.3329-.8038-.8857q.0069-5.27-.0032-10.54c-.0021-.6783.3-.9257.9615-.9161,1.8148.0263,3.6323-.0384,5.4446.0353,1.9068.0775,3.0565,1.0048,3.3439,2.5266.3542,1.876-.25,2.9686-2.1493,3.8968C-479.0869,536.7771-479.2852,536.8935-479.5639,537.044Zm-2.5572-5.4094c-3.08.0706-2.6293-.5272-2.6779,2.7668-.0034.2342.0018.4689.0146.7028a.6071.6071,0,0,0,.6793.6346,15.8469,15.8469,0,0,0,4.1949-.2042,1.7784,1.7784,0,0,0,1.5119-1.87,1.8244,1.8244,0,0,0-1.5194-1.8832A8.6159,8.6159,0,0,0-482.1211,531.6346Z" transform="translate(651.3588 -176.916)" fill="#0fa182"/><path d="M-467.2912,537.0372c1.74,1.5249,2.611,3.4564,3.8,5.2215-1.7755.4674-1.7743.4666-2.6044-.8258-.6009-.9356-1.1737-1.8912-1.8156-2.7977a3.6431,3.6431,0,0,0-4.0125-1.4462c-.5376.1481-.54.54-.5425.9538-.0064,1.171-.0129,2.342-.006,3.513.0031.5315-.1063.8911-.7649.902-.7.0116-.9187-.3044-.9166-.9521q.0168-5.1817-.0047-10.3636c-.0042-.7456.2793-1.0436,1.0349-1.0272,1.8727.0408,3.7523-.0583,5.6182.0646a3.1063,3.1063,0,0,1,3.1578,3.6182,2.7739,2.7739,0,0,1-1.4731,2.4314C-466.2266,536.5559-466.6591,536.7353-467.2912,537.0372Zm-2.8124-1.2525c.642-.035,1.2855-.0537,1.9253-.1123a3.2924,3.2924,0,0,0,.8521-.2073,1.9116,1.9116,0,0,0,1.1265-2.5762,1.9953,1.9953,0,0,0-1.8165-1.1956c-1.223-.0969-2.4582-.0389-3.6882-.0493a.6549.6549,0,0,0-.7574.7371c0,.3515-.0118.703-.0083,1.0545C-472.4437,536.0588-472.7627,535.7279-470.1036,535.7847Z" transform="translate(651.3588 -176.916)" fill="#0fa182"/><path d="M-441.7609,537.0217a9.9851,9.9851,0,0,1,1.6248,1.7988c.7135,1.13,1.4265,2.26,2.1564,3.4171-1.709.4864-1.7141.49-2.4866-.6811-.58-.8793-1.19-1.7436-1.707-2.6593-.8811-1.56-2.2443-1.8949-3.8879-1.7328-.6161.0607-.8.3415-.7962.8953.0082,1.171-.0156,2.3423,0,3.5131.0082.62-.1528.9913-.8786.9873-.7566-.0041-.8312-.4409-.83-1.0266q.0126-5.1822-.0006-10.3642c-.0024-.6561.2425-.9575.923-.9488,1.8149.0236,3.6329-.0467,5.4445.0346a3.2532,3.2532,0,0,1,3.42,2.6886c.3092,1.6756-.4932,2.965-2.3668,3.8027Zm-2.4071-5.3856c-3.0817.0789-2.6462-.5891-2.6907,2.8351a5.0652,5.0652,0,0,0,.025.6983.5559.5559,0,0,0,.5622.5516,13.145,13.145,0,0,0,4.5067-.2758,1.792,1.792,0,0,0,1.2883-1.87,1.7511,1.7511,0,0,0-1.2751-1.6884A6.6175,6.6175,0,0,0-444.168,531.6361Z" transform="translate(651.3588 -176.916)" fill="#0fa182"/><path d="M-389.5985,536.2291c2.6855-.0173,2.5511-.0083,2.7321,2.682a2.8118,2.8118,0,0,1-2.0535,3.1879,7.4873,7.4873,0,0,1-3.7653.6732c-2.5023-.3357-4.4954-1.4264-5.2192-4.0309-.7338-2.6407-.4634-5.1577,1.5389-7.1972,1.71-1.7412,5.3579-2,7.3924-.6686a4.1383,4.1383,0,0,1,1.61,2.033c.1737.4478.1113.7909-.3941.9768-.4263.1569-.8086.212-1.021-.3006a3.2308,3.2308,0,0,0-3.1877-2.0493,4.02,4.02,0,0,0-4.4515,3.5838,9.5518,9.5518,0,0,0-.092,1.5774c-.0253,4.7147,4.4273,5.376,7.0974,3.8986a2.3111,2.3111,0,0,0,.7373-2.6275c-.1674-.3171-.4542-.3276-.7418-.3338-.7035-.0153-1.4075-.0071-2.1108-.0266-.427-.0119-.6091-.2633-.6066-.683.0025-.4123.1669-.6811.6006-.6912C-390.8885,536.218-390.2434,536.2291-389.5985,536.2291Z" transform="translate(651.3588 -176.916)" fill="#0fa182"/><path d="M-290.5489,533.6886c0,2.4289.0015,4.6472-.0013,6.8655,0,.4691-.0015.9393-.03,1.4073-.0351.5717-.4549.5874-.888.5828-.4088-.0043-.67-.1618-.689-.6009-.01-.2343-.018-.4691-.0181-.7037-.0011-3.2285-.0115-6.4572.0111-9.6856.0034-.4694-.2534-1.1365.5082-1.2967a1.3928,1.3928,0,0,1,1.6378.6884c.7632,1.2515,1.6105,2.4516,2.4226,3.6733q1.5477,2.3278,3.0928,4.6526c.6282-.3565.399-.8168.4034-1.18.0251-2.0543.01-4.109.0144-6.1635a9.634,9.634,0,0,1,.0518-1.2285c.0617-.4706.4531-.4584.8062-.455a.5365.5365,0,0,1,.6114.487,5.9072,5.9072,0,0,1,.0437.7008q.0042,5.019-.0042,10.0379c-.0012.3813.1418.8969-.4094,1.0189-.5033.1113-1.0634.2129-1.4626-.2831-.22-.2734-.4068-.5742-.6012-.8675-1.3612-2.0547-2.7085-4.1187-4.09-6.16A3.1711,3.1711,0,0,0-290.5489,533.6886Z" transform="translate(651.3588 -176.916)" fill="#0fa182"/><path d="M-276.5352,530.2466c.7034,0,1.4093-.0388,2.11.0073a4.5275,4.5275,0,0,1,4.2336,3.1633,8.2172,8.2172,0,0,1-.18,6.3394,4.3037,4.3037,0,0,1-3.9567,2.7553c-1.5211.073-3.048.0181-4.5718.0469-.6646.0126-.9418-.2524-.9385-.9285.0167-3.5179.0126-7.0358.0068-10.5538-.001-.5787.2341-.8636.8347-.8509.82.0175,1.6415.0044,2.4624.0044Zm-1.6189,6.181h.0038c0,1.2838.0074,2.5677-.0034,3.8514-.0048.5662.2138.8713.816.8592.8749-.0175,1.7522.0243,2.6247-.0262a3.0836,3.0836,0,0,0,2.9438-2.3358,7.6112,7.6112,0,0,0,.0981-4.4818,3.2354,3.2354,0,0,0-2.7667-2.5588,24.7065,24.7065,0,0,0-2.7927-.0985c-.677-.0326-.9384.2834-.929.9392C-278.1411,533.86-278.1541,535.1438-278.1541,536.4276Z" transform="translate(651.3588 -176.916)" fill="#0fa182"/><path d="M-462.2894,536.3309c.0588-4.3151,3.2352-6.9985,7.249-6.1242.1141.0248.2308.0407.3422.0744,3.7437,1.1319,4.7753,4.966,3.8013,8.46a5.6957,5.6957,0,0,1-7.5763,3.6952C-460.8856,541.57-462.3293,539.26-462.2894,536.3309Zm9.9711.1693a7.1724,7.1724,0,0,0-.2651-2.1655,3.8338,3.8338,0,0,0-3.8123-2.7976,3.8167,3.8167,0,0,0-3.9052,2.8972,7.2262,7.2262,0,0,0-.1566,3.477,4.0438,4.0438,0,0,0,5.1073,3.26C-453.3922,540.6458-452.3538,539.0766-452.3183,536.5Z" transform="translate(651.3588 -176.916)" fill="#0fa182"/><path d="M-344.892,536.3636c-.019,2.5306-.8088,4.5485-2.9968,5.7107a5.6643,5.6643,0,0,1-6.155-.2966c-2.1676-1.4731-2.7323-3.6884-2.5309-6.1617a5.7122,5.7122,0,0,1,5.8381-5.5721c3.1974-.0286,5.5189,2.2157,5.7882,5.5955C-344.9253,535.9306-344.903,536.2218-344.892,536.3636Zm-1.7454-.1222a11.4208,11.4208,0,0,0-.1154-1.2813,3.9,3.9,0,0,0-3.8447-3.4217,3.8446,3.8446,0,0,0-4.0873,3.12,7.26,7.26,0,0,0-.0821,3.3087,4.0512,4.0512,0,0,0,5.1524,3.1926C-347.6749,540.6183-346.661,539.0418-346.6374,536.2414Z" transform="translate(651.3588 -176.916)" fill="#0fa182"/><path d="M-306.4953,536.3762c-.0294,2.5621-.8357,4.5709-3.0339,5.717a5.6634,5.6634,0,0,1-6.1526-.3385c-2.2192-1.5353-2.7385-3.8332-2.475-6.3549a5.6818,5.6818,0,0,1,5.8592-5.3558,5.6481,5.6481,0,0,1,5.7374,5.4625C-306.5292,535.8555-306.5079,536.2054-306.4953,536.3762Zm-1.7462.1888a7.5377,7.5377,0,0,0-.2175-2.0892,3.8776,3.8776,0,0,0-3.8867-2.9389,3.8209,3.8209,0,0,0-3.8856,2.923,7.1958,7.1958,0,0,0-.1437,3.4772,4.0449,4.0449,0,0,0,5.1274,3.2287C-309.2992,540.6339-308.2713,539.06-308.2415,536.565Z" transform="translate(651.3588 -176.916)" fill="#0fa182"/><path d="M-497.7526,536.3865c-.0005-1.6417.027-3.2841-.0118-4.9249-.02-.8574.2037-1.2808,1.1744-1.2558,2.2266.0573,4.4556.0178,6.6837.0192.1755,0,.3517.0054.5264.0208.4364.0385.58.31.5787.7153a.5813.5813,0,0,1-.6341.66c-1.4657.0132-2.9315.01-4.3973.0153-.5277.0017-1.0554.0018-1.5829.0137a.6062.6062,0,0,0-.6448.6654c-.0025.0586-.0008.1177-.0074.1758-.3382,3.0158-.3383,3.0156,2.71,3.016,1.0554,0,2.1109.0106,3.1662-.0019.5392-.0064.9242.1322.926.7621.002.7247-.53.6471-.99.6492-1.5831.0073-3.1664.0224-4.7491-.0037-.7068-.0116-1.0327.187-1.0855.9782-.217,3.254-.2442,3.252,3.0264,3.2524,1.2313,0,2.4626.01,3.6938-.001.56-.0051.9067.1769.8645.8046-.0387.5766-.4539.6048-.88.6053-2.4626.0028-4.9254-.017-7.3876.0121-.7983.0094-.9965-.3714-.9869-1.0772C-497.7366,539.7874-497.7521,538.0869-497.7526,536.3865Z" transform="translate(651.3588 -176.916)" fill="#0fa182"/><path d="M-384.45,536.3947c0-1.64.0267-3.28-.0117-4.9193-.02-.8414.1626-1.2959,1.1522-1.2695,2.2239.0594,4.4505.0169,6.676.0217.2873.0006.6054-.05.8337.1742a.8422.8422,0,0,1,.144.8157c-.072.3821-.3854.4027-.6713.405-1.5812.0128-3.1625.0062-4.7437.0148-1.6578.009-1.68.0133-1.6726,1.5906.0124,2.615-.2622,2.2463,2.207,2.2772,1.054.0133,2.11-.0271,3.162.0149.5147.0206,1.2849-.2924,1.333.6575.05.9806-.73.7188-1.2512.7313-1.3462.0323-2.6939,0-4.0407.0147-1.3746.0154-1.42.0272-1.406,1.3244.037,3.5073-.4789,2.818,2.8174,2.8914,1.2293.0274,2.46.0062,3.69.0071.5008,0,.9439.0457.9309.7312-.0135.708-.5089.6731-.9763.6742-2.4012.0054-4.8027-.0174-7.2035.0127-.8.01-.9879-.3684-.9768-1.0747C-384.4313,539.7918-384.4493,538.0931-384.45,536.3947Z" transform="translate(651.3588 -176.916)" fill="#0fa182"/><path d="M-302.761,534.8623c0,1.1723-.0536,2.3477.0125,3.5163a2.6157,2.6157,0,0,0,2.7763,2.7606c2.0666.1144,2.9957-.585,3.3565-2.4839a33.4764,33.4764,0,0,0,.1755-5.2624c.0259-.82.0109-1.6412.0139-2.4618.0019-.5222.282-.71.7808-.7046.4582.0047.8507.0851.8442.6373-.0355,2.9834.2908,5.9845-.3008,8.9418a3.5233,3.5233,0,0,1-2.5335,2.6836,6.448,6.448,0,0,1-4.3135-.09,3.37,3.37,0,0,1-2.1434-2.1818,5.9738,5.9738,0,0,1-.37-1.89q-.0087-3.517-.0232-7.0342c-.002-.55-.0082-1.0484.7851-1.0743.869-.0284.9277.4786.92,1.1264-.0147,1.1722-.0041,2.3448-.0041,3.5172Z" transform="translate(651.3588 -176.916)" fill="#0fa182"/><path d="M-419.2114,536.4454c0-1.7021.0278-3.4049-.0119-5.1061-.0193-.83.2757-1.1566,1.1239-1.1277,1.6415.0559,3.2949-.07,4.9266.0717a3.5048,3.5048,0,0,1,2.9837,5.2278,3.2648,3.2648,0,0,1-2.2658,1.781,15.8932,15.8932,0,0,1-3.6777.2286c-1.3693.0389-1.3793.0371-1.4061,1.3506q-.0288,1.4082-.0036,2.8172c.01.57-.1873.8662-.8059.8675-.5908.0012-.8626-.2372-.86-.8282.0067-1.7608.0024-3.5216.0024-5.2824Zm4.0457-4.8088c-.4385,0-.792.0269-1.14-.0052-.8594-.0795-1.3237.1887-1.248,1.1565.0637.8143.0189,1.6371.0215,2.4562.0014.4658.1708.8241.6855.8337a11.5677,11.5677,0,0,0,3.8325-.2236,1.9113,1.9113,0,0,0,1.4741-2.1033,1.9169,1.9169,0,0,0-1.6183-1.9951A8.7849,8.7849,0,0,0-415.1657,531.6366Z" transform="translate(651.3588 -176.916)" fill="#0fa182"/><path d="M-399.2225,542.4062c-1.6116.182-1.6117.182-2.1675-1.1987-1.0172-2.5267-1.0172-2.5267-3.6784-2.5261a5.4615,5.4615,0,0,1-.8783-.0069,1.4612,1.4612,0,0,0-1.8578,1.3321,9.4048,9.4048,0,0,1-.4752,1.322c-.5025,1.2955-.5049,1.2946-2.1342,1.0111,1.46-3.7819,2.9222-7.5459,4.3585-11.32a1.066,1.066,0,0,1,1.1774-.8038c.5027.0224.8961.091,1.1114.6384,1.5,3.8132,3.2195,7.5378,4.588,11.4038C-399.1647,542.2974-399.2067,542.3564-399.2225,542.4062Zm-5.8265-9.9393-1.6705,4.6712a10.8862,10.8862,0,0,0,3.65-.0126A17.0916,17.0916,0,0,0-405.049,532.4669Z" transform="translate(651.3588 -176.916)" fill="#0fa182"/><path d="M-537.684,494.2657c1.9086,1.6178,2.7142,3.8661,3.4824,6.1292.275.81.1263,2.1686.8067,2.3387.9663.2416,1.2681-1.1407,1.8394-1.7993,1.7154-1.9772,3.2784-4.0864,4.9065-6.14a8.2792,8.2792,0,0,1,1.5828-1.6259q.4039.1982.8069.3955a.9952.9952,0,0,1-.1524,1.3521,6.6778,6.6778,0,0,0-1.2421,1.7793,41.3858,41.3858,0,0,0-3.8681,4.8775c-1.015,1.2615-1.9291,2.6059-2.8533,3.9376-.2814.4053-.5462.749-1.0831.7416-1.2145-3.5179-2.4325-7.0346-3.8374-10.4827a3.0493,3.0493,0,0,1-.3908-1.5018Z" transform="translate(651.3588 -176.916)" fill="#cfcfcf"/><path d="M-351.7682,389.993c1.5375-.5837,3.24-.44,4.7654-1.0776a14.4394,14.4394,0,0,1,.8165,3.382,1.2246,1.2246,0,0,1-.696,1.6008c-2.2252.8659-4.4047,1.8535-6.6954,2.5438-.7583.2284-1.0126-.0042-.79-.7237a5.9353,5.9353,0,0,1,1.5293-2.7241A3.3649,3.3649,0,0,0-351.7682,389.993Z" transform="translate(651.3588 -176.916)" fill="#242d30"/><path d="M-328.0385,536.3527c-.0009-1.701.0212-3.4024-.011-5.1028-.0142-.7518.2664-1.0457,1.026-1.0351,2.1111.03,4.223.01,6.3346.01.4922,0,.9577.0226.96.7077.0025.6937-.4746.7-.96.701-1.5251.0034-3.0514.0406-4.5746-.01-.8612-.0289-1.12.3127-1.103,1.1331.0682,3.3589-.37,2.67,2.6339,2.7485.762.02,1.5249.008,2.2874.0092.4773.0006.771.1663.77.7131-.0007.5609-.3255.6856-.7871.6865-1.29.0024-2.5816.0344-3.8708-.0022-.7567-.0214-1.052.2668-1.0312,1.023.034,1.2307,0,2.4632.0064,3.6949.0027.5249-.0914.906-.7511.9258-.68.02-.9459-.2451-.9368-.9235C-328.0221,539.8722-328.0377,538.1123-328.0385,536.3527Z" transform="translate(651.3588 -176.916)" fill="#0fa182"/><path d="M-340.7584,388.6642q2.0484-.5653,4.0965-1.1309c.4469,1.7828,1.0018,3.487,2.671,4.5765a1.2961,1.2961,0,0,1,.5511,1.6886c-.29.6705-.9115.6376-1.5035.6341a14.1209,14.1209,0,0,1-4.7732-1.0588,1.4089,1.4089,0,0,1-1.0895-1.7273A17.5707,17.5707,0,0,0-340.7584,388.6642Z" transform="translate(651.3588 -176.916)" fill="#242d30"/><path d="M-339.0219,530.2282c1.3457-.0009,2.6914.0052,4.037-.0039.5441-.0037.9077.1412.8774.7852-.0276.5852-.4251.6162-.8525.62-.6435.0064-1.2912.0525-1.93-.0034-.9483-.0831-1.2093.3543-1.1979,1.2329.0343,2.6323.0131,5.2655.01,7.8983,0,.4091.0022.82-.0343,1.2267-.051.5689-.4861.56-.9076.56-.3923.0007-.6947-.1115-.7126-.5653-.0184-.4673-.0237-.9354-.0242-1.4031-.0027-2.5743-.0261-5.149.01-7.7228.0127-.8958-.2962-1.29-1.2155-1.2261-.6985.0482-1.4034.003-2.1055.0028-.4723,0-.7826-.1557-.7782-.7016.0045-.5421.3148-.7.7863-.7Q-341.04,530.23-339.0219,530.2282Z" transform="translate(651.3588 -176.916)" fill="#0fa182"/><path d="M-347.7154,368.6287a46.9747,46.9747,0,0,1,2.7235,9.0435c-1.17-.155-2.1477.5692-3.2523.7145a45.9121,45.9121,0,0,1-1.6885-4.9377,6.0446,6.0446,0,0,1,.234-4.593Z" transform="translate(651.3588 -176.916)" fill="#cce9f5"/><path d="M-540.58,468.5869c-.98.3684-1.4124,1.2966-2.0021,2.0375a32.5471,32.5471,0,0,1-3.3924,3.48c-.3951-1.5361.3048-3.1887-.9649-4.33a12.2124,12.2124,0,0,1,4.3563-2.3446C-541.4193,467.1082-541.1653,467.2917-540.58,468.5869Z" transform="translate(651.3588 -176.916)" fill="#e24d5f"/><path d="M-434.928,540.98c.6728-.0085,1.0905.0645,1.1117.7256.0187.5836-.194.8677-.8.8491-.4885-.0151-.9354-.0006-.9428-.6973C-435.5653,541.2788-435.3551,540.9746-434.928,540.98Z" transform="translate(651.3588 -176.916)" fill="#0fa182"/><path d="M-423.1993,542.5483c-.5248.0038-.9882.0192-1.0063-.6787-.0147-.5706.1809-.8933.7811-.8914.4935.0016.9359.0453.9583.7154C-422.4474,542.2589-422.6109,542.601-423.1993,542.5483Z" transform="translate(651.3588 -176.916)" fill="#0fa182"/><path d="M-428.1485,541.749c.0666.57-.21.8178-.7871.8023-.4739-.0128-.9266.0069-.9474-.67-.0177-.5778.22-.8429.7976-.8336C-428.604,541.0558-428.14,541.0633-428.1485,541.749Z" transform="translate(651.3588 -176.916)" fill="#0fa182"/><path d="M-339.04,377.7351a.33.33,0,0,1-.16-.3981Q-339.12,377.5362-339.04,377.7351Z" transform="translate(651.3588 -176.916)" fill="#cce9f5"/><path d="M-338.0932,364.1317c-3.0909.2813-6.18.5784-9.273.8394-3.156.2664-6.3147.5-9.4729.7388a6.76,6.76,0,0,1-.8742-.0437,7.65,7.65,0,0,1-.6556-4.5967,39.2358,39.2358,0,0,0,.8868-4.9927c.2764-2.1972.5652-4.3928.8486-6.589.93-5.4176,2.5835-10.6635,3.6192-16.2563.7446,1.0224.7589,1.0222.765,1.754.0113,1.3494.0015,2.699.005,4.0485.0056,2.1969.487,2.6792,2.6658,2.6355a7.0012,7.0012,0,0,0,1.2163-.1554c1.9672-.3913,2.2924-.749,2.7206-2.6792a33.9865,33.9865,0,0,0,.3991-6.1336l1.9337-.1071c-.1215,1.7464-.2013,3.4969-.3743,5.2382a13.4883,13.4883,0,0,0,1.5417,8.1231,83.2737,83.2737,0,0,1,3.28,10.8984C-338.38,359.2524-337.6445,361.6319-338.0932,364.1317Z" transform="translate(651.3588 -176.916)" fill="#147fc2"/><path d="M-345.2425,332.7013a33.9865,33.9865,0,0,1-.3991,6.1336c-.4282,1.93-.7534,2.2879-2.7206,2.6792a7.0012,7.0012,0,0,1-1.2163.1554c-2.1788.0437-2.66-.4386-2.6658-2.6355-.0035-1.3495.0063-2.6991-.005-4.0485-.0061-.7318-.02-.7316-.765-1.754-1.0357,5.5928-2.69,10.8387-3.6191,16.2562-.6558-.2874-.6653-.8642-.6866-1.4616-.0846-2.3614-.6011-4.6685-.9047-7.0026-.192-.7223.01-1.5228-.4359-2.1947-.1891-3.08-.92-6.0833-1.3-9.1341-.2535-2.0337-.9638-3.945-1.3517-5.9432a9.6731,9.6731,0,0,1,1.0419-7.0756c1.489-2.5,2.9487-5.0606,5.7962-6.3323a4.2077,4.2077,0,0,1,2.1427,1.1422l-.427,1.0169a.531.531,0,0,0-.1853.7794l.0149.0583a.6866.6866,0,0,0-.75.2993,15.1609,15.1609,0,0,0-2.1678,3.4786c-2.2478,2.8875-2.2679,6.24-1.9726,9.6412a7.2568,7.2568,0,0,0,.7975,2.4879,3.2012,3.2012,0,0,0,2.5472,1.905,14.9172,14.9172,0,0,0,4.0008.1494,22.8447,22.8447,0,0,0,4.81-1.4931C-346.4,330.9006-345.8026,331.7982-345.2425,332.7013Z" transform="translate(651.3588 -176.916)" fill="#fff"/><path d="M-345.6637,329.8087a22.8447,22.8447,0,0,1-4.81,1.4931,14.9172,14.9172,0,0,1-4.0008-.1494,3.2012,3.2012,0,0,1-2.5472-1.905,7.2568,7.2568,0,0,1-.7975-2.4879c-.2953-3.4012-.2752-6.7537,1.9721-9.6407q1.2516-.7553,2.5041-1.5115a1.5492,1.5492,0,0,0,1.2013-.3036c2.044-.32,3.9123.5309,5.8116.9925a4.7782,4.7782,0,0,1,3.3511,3.77c.8623,3.3574.4935,6.5131-2.0291,9.1551-.2393.1558-.5476.234-.63.5643Z" transform="translate(651.3588 -176.916)" fill="#c16920"/><path d="M-342.1414,345.9555a13.4883,13.4883,0,0,1-1.5417-8.1231c.173-1.7413.2528-3.4918.3743-5.2382a30.1355,30.1355,0,0,1,4.8832.1819,2.3257,2.3257,0,0,0,2.643-.9014c.52-1.0535,1.0522-2.2512.3148-3.4913a4.5424,4.5424,0,0,1-1.05-2.1748c.9612.144,1.82-.4841,2.7771-.37a7.7056,7.7056,0,0,1,2.8026,3.504,4.5516,4.5516,0,0,1-.3245,4.4969,7.3024,7.3024,0,0,1-4.638,3.4252c-1.871.4064-3.6628,1.168-5.527,1.6184a1.2681,1.2681,0,0,0-1.0863,1.6486c.1506,1.1492.368,2.29.555,3.4341C-341.8481,344.6442-341.6027,345.336-342.1414,345.9555Z" transform="translate(651.3588 -176.916)" fill="#fff"/><path d="M-334.7941,308.7063c-.6029.8637-1.6288.8546-2.4853,1.1356-2.27.7449-4.5809,1.3647-6.861,2.08a4.7208,4.7208,0,0,1-1.5485.214,4.6448,4.6448,0,0,0-.4167-2.4678c.0769-.218.1035-.5044.3543-.573,3.424-.9361,6.752-2.207,10.2352-2.9369A5.2413,5.2413,0,0,0-334.7941,308.7063Z" transform="translate(651.3588 -176.916)" fill="#e4f2f3"/><path d="M-333.7408,325.8384c-.9575-.1139-1.8159.5142-2.7771.37-.4557-.6772-.9962-1.286-1.4273-1.9912-.7565-1.2375-1.535-2.3858-.3917-3.8174.1862-.2331.1028-.6815.1438-1.03a3.8075,3.8075,0,0,1,1.9455-.2754,5.1415,5.1415,0,0,1,2.1512,4.1595C-334.1145,324.1429-333.5839,324.9407-333.7408,325.8384Z" transform="translate(651.3588 -176.916)" fill="#ecc8b1"/><path d="M-336.2476,319.0942a3.8075,3.8075,0,0,0-1.9455.2754c-.336-1.043-.6424-2.097-1.0192-3.1251-.2464-.672.0361-.9582.6213-1.1409s1.1321-.3459,1.3565.4958C-336.9227,316.7689-336.5781,317.93-336.2476,319.0942Z" transform="translate(651.3588 -176.916)" fill="#3e5ba7"/><path d="M-352.1417,315.3037a1.548,1.548,0,0,1-1.2011.3034q.2073-1.1335.4143-2.2667l-.0158-.0585a.9175.9175,0,0,0,.1862-.7792l.427-1.0169c.4411-.3436.5636-1.0482,1.2554-1.1081Q-351.6088,312.84-352.1417,315.3037Z" transform="translate(651.3588 -176.916)" fill="#5f5f5f"/><path d="M-334.7941,308.7063a5.2413,5.2413,0,0,1-.722-2.548c1.1116-.0373,1.2031.8835,1.4337,1.6045C-333.91,308.3005-334.2743,308.6025-334.7941,308.7063Z" transform="translate(651.3588 -176.916)" fill="#cfcfcf"/><path d="M-346.1056,309.6682a4.6448,4.6448,0,0,1,.4167,2.4678C-346.8894,311.3-347.0439,310.3853-346.1056,309.6682Z" transform="translate(651.3588 -176.916)" fill="#8bccc4"/><path d="M-349.9294,305.45c-.0988.059-.1941.1253-.2972.1755-.199.0969-.4651.2816-.5911.0095-.1039-.2245.1674-.3828.3752-.447a1.9334,1.9334,0,0,1,.508-.022Q-349.9273,305.3086-349.9294,305.45Z" transform="translate(651.3588 -176.916)" fill="#5f5f5f"/><path d="M-345.6382,329.7858c.0825-.33.3908-.4085.63-.5643A.6436.6436,0,0,1-345.6382,329.7858Z" transform="translate(651.3588 -176.916)" fill="#fff"/><path d="M-557.8007,254.4137a90.8709,90.8709,0,0,1,20.28-.5009,66.8754,66.8754,0,0,1,7.3065.8139,45.1336,45.1336,0,0,1-4.473,4.1934c-2.75,2.5476-5.57,5.0192-8.3263,7.56-.5891.5432-.97.6149-1.597.04-4.2769-3.916-8.5879-7.7946-12.8838-11.69A2.5485,2.5485,0,0,1-557.8007,254.4137Z" transform="translate(651.3588 -176.916)" fill="#4bbbbe"/><path d="M-550.039,482.8886c.28,2.0754,2.0689,2.9763,3.52,4.4206a20.6374,20.6374,0,0,1-9.5349.1329q-.4233-.3567-.8428-.71A15.6416,15.6416,0,0,0-550.039,482.8886Z" transform="translate(651.3588 -176.916)" fill="#242d30"/><path d="M-545.7349,475.08a10.2372,10.2372,0,0,0,.5385,6.3922,5.0263,5.0263,0,0,1-2.7046-1.1041c.1869-1.6977,1.1477-3.1517,1.5133-4.7951A.6854.6854,0,0,1-545.7349,475.08Z" transform="translate(651.3588 -176.916)" fill="#5f5f5f"/><path d="M-358.2247,341.0235c.3036,2.3341.82,4.6412.9047,7.0026.0213.5974.0308,1.1742.6866,1.4616-.2835,2.1963-.5723,4.3919-.8487,6.5891a39.2358,39.2358,0,0,1-.8868,4.9927,7.65,7.65,0,0,0,.6556,4.5967q-3.1522.2629-6.3044.5252a4.0291,4.0291,0,0,1,.0428-.7Q-361.1063,353.2561-358.2247,341.0235Z" transform="translate(651.3588 -176.916)" fill="#cce9f5"/><path d="M-358.2247,341.0235q-2.8776,12.2335-5.75,24.4682a4.0291,4.0291,0,0,0-.0428.7,1.4871,1.4871,0,0,1-1.1291.19q3.0344-13.0209,6.0714-26.041c.1187-.5084.2756-1.0078.4148-1.5114C-358.215,339.5007-358.4167,340.3012-358.2247,341.0235Z" transform="translate(651.3588 -176.916)" fill="#242d30"/><path d="M-479.2226,341.1857a20.9564,20.9564,0,0,1-3.1188,11.7166A15.0136,15.0136,0,0,1-491.84,359.36a21.415,21.415,0,0,1-10.1005.0051,15.3135,15.3135,0,0,1-11.7362-11.1937,24.3773,24.3773,0,0,1-.05-13.8716,15.74,15.74,0,0,1,14.3-11.651,23.0392,23.0392,0,0,1,8.0177.563c6.8609,1.8688,10.5635,6.5885,11.8128,13.4211A19.6258,19.6258,0,0,1-479.2226,341.1857Zm-27.898.1089a14.7148,14.7148,0,0,0,1.2167,6.8c1.59,3.5427,4.2781,5.7316,8.2421,5.94,4.1053.2158,7.4-1.37,9.2536-5.143a17.0409,17.0409,0,0,0,.1634-15.1291c-1.8043-3.9581-5.2509-5.6036-9.4836-5.3528-4.0759.2415-6.857,2.4348-8.3445,6.2615A16.2732,16.2732,0,0,0-507.1206,341.2946Z" transform="translate(651.3588 -176.916)" fill="#0fa182"/><path d="M-439.3157,341.6021a20.2334,20.2334,0,0,1-1.4958,8.3435,14.8971,14.8971,0,0,1-9.1913,8.8709,20.8254,20.8254,0,0,1-13.803.0089,14.6283,14.6283,0,0,1-9.3644-9.1478,23.5576,23.5576,0,0,1-.1567-16.5261c2.2939-6.3955,7.0432-9.6954,13.6965-10.4737a21.2558,21.2558,0,0,1,9.3694.88c5.8692,1.9832,9.1366,6.2818,10.4812,12.1965A26.0439,26.0439,0,0,1-439.3157,341.6021Zm-7.44-.4483a15.1971,15.1971,0,0,0-1.5313-7.4777,9.2208,9.2208,0,0,0-9.024-5.284,9.0646,9.0646,0,0,0-8.488,5.5535,14.7371,14.7371,0,0,0-1.2883,4.7322,17.5815,17.5815,0,0,0,1.4229,9.9653,9.0557,9.0557,0,0,0,8.5847,5.4084,9.1917,9.1917,0,0,0,8.7158-5.2111A15.1965,15.1965,0,0,0-446.7562,341.1538Z" transform="translate(651.3588 -176.916)" fill="#0fa182"/><path d="M-386.2127,359.9939a19.15,19.15,0,0,1-8.2553-1.781,11.393,11.393,0,0,1-6.0227-7.6232,3.5381,3.5381,0,0,1,1.0944-3.8389,3.0425,3.0425,0,0,1,4.2819.2938,8.3545,8.3545,0,0,1,1.4335,2.6013,8.1941,8.1941,0,0,0,12.08,3.6678,4.6872,4.6872,0,0,0,2.462-4.3648,4.4086,4.4086,0,0,0-2.7175-3.8049,21.1108,21.1108,0,0,0-5.1865-1.6186,44.4579,44.4579,0,0,1-5.8863-1.7682,16.614,16.614,0,0,1-2.3831-1.1206,8.6675,8.6675,0,0,1-4.6054-8.13,8.9848,8.9848,0,0,1,4.8687-8.0134,17.83,17.83,0,0,1,9.5237-1.9638,15.0944,15.0944,0,0,1,7.5658,2.0069,9.7039,9.7039,0,0,1,3.9888,4.3288,5.7662,5.7662,0,0,1,.4672,2.92,3.3763,3.3763,0,0,1-2.2687,2.8621,2.9071,2.9071,0,0,1-3.3946-1.2051,14.7269,14.7269,0,0,1-1.2651-2.1089c-1.3418-2.7183-3.6637-3.6854-6.5086-3.5859a7.1978,7.1978,0,0,0-4.7522,1.55,3.3143,3.3143,0,0,0,.3647,5.621,9.1228,9.1228,0,0,0,2.72,1.21c2.1539.5612,4.3033,1.1393,6.4523,1.7188a30.8808,30.8808,0,0,1,4.6182,1.68c6.0138,2.702,6.7593,8.9352,4.6954,13.5084-1.5738,3.4872-4.5318,5.2688-8.054,6.2623A24.8032,24.8032,0,0,1-386.2127,359.9939Z" transform="translate(651.3588 -176.916)" fill="#0fa182"/><path d="M-433.0389,341.4817q0-6.5149.0017-13.03a15.9832,15.9832,0,0,1,.0433-1.7591,3.5039,3.5039,0,0,1,3.0222-3.3969,6.969,6.969,0,0,1,1.7429-.1869c3.5215.003,7.0434-.0184,10.5646.0209a20.6146,20.6146,0,0,1,5.0453.65,9.4331,9.4331,0,0,1,7.06,8.4875,17.4615,17.4615,0,0,1-.0947,4.3918,9.3121,9.3121,0,0,1-6.2221,7.4678,17.4524,17.4524,0,0,1-5.8508,1.0954c-1.9359.0467-3.8735.0158-5.81.0253-2.3163.0114-2.1173-.2016-2.1233,2.0412q-.0108,4.05-.001,8.1a5.4765,5.4765,0,0,1-.5089,2.5621,3.47,3.47,0,0,1-3.27,1.9961,3.4532,3.4532,0,0,1-3.2274-2.3117,6.44,6.44,0,0,1-.3714-2.5956c.0056-.1171,0-.2347,0-.3521Q-433.039,348.0846-433.0389,341.4817Zm7.3772-7.3817q0,1.8477,0,3.6953c.0025,1.9948-.1313,1.8616,1.9456,1.8614,1.4077,0,2.8155-.0267,4.223-.0161a10.2278,10.2278,0,0,0,2.9445-.4579c2.5783-.7514,3.7378-2.55,3.61-5.4964a4.5585,4.5585,0,0,0-3.9679-4.6509c-2.61-.5982-5.2581-.249-7.8886-.34-.7252-.025-.8758.391-.8693,1.0053C-425.6487,331.1671-425.6592,332.6336-425.6617,334.1Z" transform="translate(651.3588 -176.916)" fill="#0fa182"/><path d="M-524.2593,493.5643q-.4032-.1976-.8069-.3955c-1.1086-1.9172-2.9-3.2688-4.1764-5.0476-.2625-.3659-.711-.61-.7121-1.1381a44.6276,44.6276,0,0,1,3.8895-3.7883,8.0764,8.0764,0,0,0,2.294-4.0475c.9258-4.0521,1.9941-8.0714,2.9682-12.1129a3.57,3.57,0,0,0,.2171-1.7276c.078-.6177.332-1.35-.0987-1.8139a2.5878,2.5878,0,0,1-.4934-1.9029c.243-.9776,1.1482-1.8258.5788-2.9622.6883-.5372.9027-1.6145,1.9657-1.7245.16,1.3618.32,2.7235.4979,4.2443.6153-.9873.2656-1.9949.7093-2.8207a3.993,3.993,0,0,1,1.0126,4.02,29.0628,29.0628,0,0,0-.4382,4.34c-.2574,3.3132-.1683,6.657-.5081,9.9587-.2448,2.3785-.0493,4.7854-.5534,7.141a3.7,3.7,0,0,1-.4487,1.3115C-520.259,487.9676-522.1276,490.8577-524.2593,493.5643Z" transform="translate(651.3588 -176.916)" fill="#ecc8b1"/><path d="M-517.4263,458.3269c-.4437.8258-.094,1.8334-.7093,2.8207-.1784-1.5208-.3382-2.8825-.4979-4.2443a2.3731,2.3731,0,0,0-.9275-2.3035c-1.3379-1.2883-1.328-1.3-.5792-3.05.0911-.2128.2-.4181.3-.627l8.1006,3.1791a.87.87,0,0,1-.0386.17,8.3517,8.3517,0,0,1-1.1113,2.3354c-.6375.6832-1.65.1217-2.4958.1561C-516.8609,456.8227-516.9433,456.8517-517.4263,458.3269Z" transform="translate(651.3588 -176.916)" fill="#5f5f5f"/><path d="M-511.7394,454.1017l-8.1006-3.1791a7.399,7.399,0,0,1,.234-1.0152c.1579-.4211.41-.648.9395-.44,2.55,1,5.1122,1.9661,7.6562,2.9389A3.3206,3.3206,0,0,1-511.7394,454.1017Z" transform="translate(651.3588 -176.916)" fill="#242d30"/><path d="M-521.178,461.59a2.5878,2.5878,0,0,0,.4934,1.9029c.4307.4643.1767,1.1962.0987,1.8139-.7687.1178-1.0174-.4312-1.1462-.9925A2.8124,2.8124,0,0,1-521.178,461.59Z" transform="translate(651.3588 -176.916)" fill="#5f5f5f"/><path d="M-537.6865,494.2679c-.168-.0712-.3361-.3235-.2552-.3564.406-.165.1818.2188.2577.3542Z" transform="translate(651.3588 -176.916)" fill="#cfcfcf"/><path d="M-352.9285,313.34q-.2072,1.1332-.4143,2.2667-1.2527.7563-2.5043,1.5117a15.1725,15.1725,0,0,1,2.1683-3.4791A.6866.6866,0,0,1-352.9285,313.34Z" transform="translate(651.3588 -176.916)" fill="#cce9f5"/><path d="M-352.7581,312.5027a.9175.9175,0,0,1-.1862.7792A.5316.5316,0,0,1-352.7581,312.5027Z" transform="translate(651.3588 -176.916)" fill="#cce9f5"/><path d="M-507.1206,341.2946a16.2732,16.2732,0,0,1,1.0477-6.6234c1.4875-3.8267,4.2686-6.02,8.3445-6.2615,4.2327-.2508,7.6793,1.3947,9.4836,5.3528a17.0409,17.0409,0,0,1-.1634,15.1291c-1.8533,3.7729-5.1483,5.3588-9.2536,5.143-3.964-.2084-6.6519-2.3973-8.2421-5.94A14.7148,14.7148,0,0,1-507.1206,341.2946Z" transform="translate(651.3588 -176.916)" fill="#cce9f5"/><path d="M-446.7562,341.1538a15.1965,15.1965,0,0,1-1.6082,7.6866,9.1917,9.1917,0,0,1-8.7158,5.2111,9.0557,9.0557,0,0,1-8.5847-5.4084,17.5815,17.5815,0,0,1-1.4229-9.9653,14.7371,14.7371,0,0,1,1.2883-4.7322,9.0646,9.0646,0,0,1,8.488-5.5535,9.2208,9.2208,0,0,1,9.024,5.284A15.1971,15.1971,0,0,1-446.7562,341.1538Z" transform="translate(651.3588 -176.916)" fill="#cce9f5"/><path d="M-425.66,334.1c.0013-1.4664.0118-2.9329-.0037-4.3991-.0065-.6143.1441-1.03.8693-1.0053,2.63.0908,5.2789-.2584,7.8886.34a4.5585,4.5585,0,0,1,3.9679,4.6509c.1279,2.9469-1.0316,4.745-3.61,5.4964a10.2278,10.2278,0,0,1-2.9445.4579c-1.4075-.0106-2.8153.0161-4.223.0161-2.0769,0-1.9431.1334-1.9456-1.8614Q-425.6638,335.9476-425.66,334.1Z" transform="translate(651.3588 -176.916)" fill="#cce9f5"/></svg>